{"glyphs":{"0":{"ha":1215,"x_min":0,"x_max":1042,"o":"m 694 347 l 694 1042 l 347 1042 l 347 347 l 694 347 m 0 0 l 0 1389 l 1042 1389 l 1042 0 l 0 0 z "},"1":{"ha":694,"x_min":0,"x_max":521,"o":"m 174 0 l 174 1042 l 0 1042 l 0 1389 l 521 1389 l 521 0 l 174 0 z "},"2":{"ha":1215,"x_min":0,"x_max":1042,"o":"m 0 0 l 0 868 l 694 868 l 694 1042 l 0 1042 l 0 1389 l 1042 1389 l 1042 521 l 347 521 l 347 347 l 1042 347 l 1042 0 l 0 0 z "},"3":{"ha":1215,"x_min":0,"x_max":1042,"o":"m 0 0 l 0 347 l 694 347 l 694 521 l 174 521 l 174 868 l 694 868 l 694 1042 l 0 1042 l 0 1389 l 1042 1389 l 1042 0 l 0 0 z "},"4":{"ha":1215,"x_min":0,"x_max":1042,"o":"m 694 0 l 694 521 l 0 521 l 0 1389 l 347 1389 l 347 868 l 694 868 l 694 1389 l 1042 1389 l 1042 0 l 694 0 z "},"5":{"ha":1215,"x_min":0,"x_max":1042,"o":"m 0 0 l 0 347 l 694 347 l 694 521 l 0 521 l 0 1389 l 1042 1389 l 1042 1042 l 347 1042 l 347 868 l 1042 868 l 1042 0 l 0 0 z "},"6":{"ha":1215,"x_min":0,"x_max":1042,"o":"m 694 347 l 694 521 l 347 521 l 347 347 l 694 347 m 0 0 l 0 1389 l 1042 1389 l 1042 1042 l 347 1042 l 347 868 l 1042 868 l 1042 0 l 0 0 z "},"7":{"ha":1215,"x_min":0,"x_max":1042,"o":"m 694 0 l 694 1042 l 0 1042 l 0 1389 l 1042 1389 l 1042 0 l 694 0 z "},"8":{"ha":1215,"x_min":0,"x_max":1042,"o":"m 694 347 l 694 521 l 347 521 l 347 347 l 694 347 m 694 868 l 694 1042 l 347 1042 l 347 868 l 694 868 m 0 0 l 0 521 l 174 694 l 0 868 l 0 1389 l 1042 1389 l 1042 868 l 868 694 l 1042 521 l 1042 0 l 0 0 z "},"9":{"ha":1215,"x_min":0,"x_max":1042,"o":"m 694 868 l 694 1042 l 347 1042 l 347 868 l 694 868 m 0 0 l 0 347 l 694 347 l 694 521 l 0 521 l 0 1389 l 1042 1389 l 1042 0 l 0 0 z "}," ":{"ha":521,"x_min":0,"x_max":0,"o":""},"!":{"ha":521,"x_min":0,"x_max":347,"o":"m 0 0 l 0 347 l 347 347 l 347 0 l 0 0 m 0 521 l 0 1389 l 347 1389 l 347 521 l 0 521 z "},"\"":{"ha":1042,"x_min":0,"x_max":868,"o":"m 0 868 l 0 1389 l 347 1389 l 347 868 l 0 868 m 521 868 l 521 1389 l 868 1389 l 868 868 l 521 868 z "},"#":{"ha":1389,"x_min":0,"x_max":1215,"o":"m 694 521 l 694 868 l 521 868 l 521 521 l 694 521 m 174 0 l 174 174 l 0 174 l 0 521 l 174 521 l 174 868 l 0 868 l 0 1215 l 174 1215 l 174 1389 l 521 1389 l 521 1215 l 694 1215 l 694 1389 l 1042 1389 l 1042 1215 l 1215 1215 l 1215 868 l 1042 868 l 1042 521 l 1215 521 l 1215 174 l 1042 174 l 1042 0 l 694 0 l 694 174 l 521 174 l 521 0 l 174 0 z "},"$":{"ha":1563,"x_min":0,"x_max":1389,"o":"m 1042 347 l 1042 521 l 868 521 l 868 347 l 1042 347 m 521 868 l 521 1042 l 347 1042 l 347 868 l 521 868 m 521 -174 l 521 0 l 0 0 l 0 347 l 521 347 l 521 521 l 0 521 l 0 1389 l 521 1389 l 521 1563 l 868 1563 l 868 1389 l 1389 1389 l 1389 1042 l 868 1042 l 868 868 l 1389 868 l 1389 0 l 868 0 l 868 -174 l 521 -174 z "},"%":{"ha":1389,"x_min":0,"x_max":1215,"o":"m 868 174 l 868 521 l 1215 521 l 1215 174 l 868 174 m 0 868 l 0 1215 l 347 1215 l 347 868 l 0 868 m 347 0 l 347 694 l 521 868 l 521 1389 l 868 1389 l 868 694 l 694 521 l 694 0 l 347 0 z "},"&":{"ha":1215,"x_min":0,"x_max":1042,"o":"m 521 347 l 521 521 l 347 521 l 347 347 l 521 347 m 521 868 l 521 1042 l 347 1042 l 347 868 l 521 868 m 521 -174 l 521 0 l 0 0 l 0 1389 l 521 1389 l 521 1563 l 868 1563 l 868 1389 l 1042 1389 l 1042 1042 l 868 1042 l 868 347 l 1042 347 l 1042 0 l 868 0 l 868 -174 l 521 -174 z "},"'":{"ha":521,"x_min":0,"x_max":347,"o":"m 0 868 l 0 1389 l 347 1389 l 347 868 l 0 868 z "},"(":{"ha":694,"x_min":0,"x_max":521,"o":"m 174 0 l 0 174 l 0 1215 l 174 1389 l 521 1389 l 521 1042 l 347 1042 l 347 347 l 521 347 l 521 0 l 174 0 z "},")":{"ha":694,"x_min":0,"x_max":521,"o":"m 0 0 l 0 347 l 174 347 l 174 1042 l 0 1042 l 0 1389 l 347 1389 l 521 1215 l 521 174 l 347 0 l 0 0 z "},"*":{"ha":1042,"x_min":0,"x_max":868,"o":"m 0 521 l 0 868 l 174 868 l 174 1042 l 0 1042 l 0 1389 l 347 1389 l 347 1215 l 521 1215 l 521 1389 l 868 1389 l 868 1042 l 694 1042 l 694 868 l 868 868 l 868 521 l 521 521 l 521 694 l 347 694 l 347 521 l 0 521 z "},"+":{"ha":1215,"x_min":0,"x_max":1042,"o":"m 347 174 l 347 521 l 0 521 l 0 868 l 347 868 l 347 1215 l 694 1215 l 694 868 l 1042 868 l 1042 521 l 694 521 l 694 174 l 347 174 z "},",":{"ha":521,"x_min":0,"x_max":347,"o":"m 0 -174 l 0 347 l 347 347 l 347 -174 l 0 -174 z "},"-":{"ha":1215,"x_min":0,"x_max":1042,"o":"m 0 521 l 0 868 l 1042 868 l 1042 521 l 0 521 z "},".":{"ha":521,"x_min":0,"x_max":347,"o":"m 0 0 l 0 347 l 347 347 l 347 0 l 0 0 z "},"/":{"ha":694,"x_min":0,"x_max":521,"o":"m 0 0 l 0 694 l 174 868 l 174 1389 l 521 1389 l 521 694 l 347 521 l 347 0 l 0 0 z "},":":{"ha":521,"x_min":0,"x_max":347,"o":"m 0 174 l 0 521 l 347 521 l 347 174 l 0 174 m 0 868 l 0 1215 l 347 1215 l 347 868 l 0 868 z "},";":{"ha":521,"x_min":0,"x_max":347,"o":"m 0 0 l 0 521 l 347 521 l 347 0 l 0 0 m 0 868 l 0 1215 l 347 1215 l 347 868 l 0 868 z "},"<":{"ha":694,"x_min":0,"x_max":521,"o":"m 0 694 l 521 1215 l 521 174 l 0 694 z "},"=":{"ha":1215,"x_min":0,"x_max":1042,"o":"m 0 174 l 0 521 l 1042 521 l 1042 174 l 0 174 m 0 868 l 0 1215 l 1042 1215 l 1042 868 l 0 868 z "},">":{"ha":694,"x_min":0,"x_max":521,"o":"m 0 1215 l 521 694 l 0 174 l 0 1215 z "},"?":{"ha":1215,"x_min":0,"x_max":1042,"o":"m 174 0 l 174 347 l 521 347 l 521 0 l 174 0 m 174 521 l 174 868 l 694 868 l 694 1042 l 0 1042 l 0 1389 l 1042 1389 l 1042 521 l 174 521 z "},"@":{"ha":1389,"x_min":0,"x_max":1215,"o":"m 0 0 l 0 1389 l 1215 1389 l 1215 521 l 521 521 l 521 868 l 868 868 l 868 1042 l 347 1042 l 347 347 l 1215 347 l 1215 0 l 0 0 z "},"A":{"ha":1215,"x_min":0,"x_max":1042,"o":"m 694 868 l 694 1042 l 347 1042 l 347 868 l 694 868 m 0 0 l 0 1389 l 1042 1389 l 1042 0 l 694 0 l 694 521 l 347 521 l 347 0 l 0 0 z "},"B":{"ha":1215,"x_min":0,"x_max":1042,"o":"m 694 347 l 694 521 l 347 521 l 347 347 l 694 347 m 694 868 l 694 1042 l 347 1042 l 347 868 l 694 868 m 0 0 l 0 1389 l 1042 1389 l 1042 868 l 868 694 l 1042 521 l 1042 0 l 0 0 z "},"C":{"ha":1215,"x_min":0,"x_max":1042,"o":"m 0 0 l 0 1389 l 1042 1389 l 1042 868 l 694 868 l 694 1042 l 347 1042 l 347 347 l 694 347 l 694 521 l 1042 521 l 1042 0 l 0 0 z "},"D":{"ha":1215,"x_min":0,"x_max":1042,"o":"m 694 347 l 694 1042 l 347 1042 l 347 347 l 694 347 m 0 0 l 0 1389 l 868 1389 l 1042 1215 l 1042 174 l 868 0 l 0 0 z "},"E":{"ha":1215,"x_min":0,"x_max":1042,"o":"m 0 0 l 0 1389 l 1042 1389 l 1042 1042 l 347 1042 l 347 868 l 868 868 l 868 521 l 347 521 l 347 347 l 1042 347 l 1042 0 l 0 0 z "},"F":{"ha":1215,"x_min":0,"x_max":1042,"o":"m 0 0 l 0 1389 l 1042 1389 l 1042 1042 l 347 1042 l 347 868 l 868 868 l 868 521 l 347 521 l 347 0 l 0 0 z "},"G":{"ha":1215,"x_min":0,"x_max":1042,"o":"m 0 0 l 0 1389 l 1042 1389 l 1042 1042 l 347 1042 l 347 347 l 694 347 l 694 521 l 521 521 l 521 868 l 1042 868 l 1042 0 l 0 0 z "},"H":{"ha":1215,"x_min":0,"x_max":1042,"o":"m 0 0 l 0 1389 l 347 1389 l 347 868 l 694 868 l 694 1389 l 1042 1389 l 1042 0 l 694 0 l 694 521 l 347 521 l 347 0 l 0 0 z "},"I":{"ha":521,"x_min":0,"x_max":347,"o":"m 0 0 l 0 1389 l 347 1389 l 347 0 l 0 0 z "},"J":{"ha":1215,"x_min":0,"x_max":1042,"o":"m 0 0 l 0 521 l 347 521 l 347 347 l 694 347 l 694 1389 l 1042 1389 l 1042 0 l 0 0 z "},"K":{"ha":1215,"x_min":0,"x_max":1042,"o":"m 0 0 l 0 1389 l 347 1389 l 347 868 l 694 868 l 694 1389 l 1042 1389 l 1042 868 l 868 694 l 1042 521 l 1042 0 l 694 0 l 694 521 l 347 521 l 347 0 l 0 0 z "},"L":{"ha":1215,"x_min":0,"x_max":1042,"o":"m 0 0 l 0 1389 l 347 1389 l 347 347 l 1042 347 l 1042 0 l 0 0 z "},"M":{"ha":1563,"x_min":0,"x_max":1389,"o":"m 0 0 l 0 1389 l 1389 1389 l 1389 0 l 1042 0 l 1042 1042 l 868 1042 l 868 347 l 521 347 l 521 1042 l 347 1042 l 347 0 l 0 0 z "},"N":{"ha":1215,"x_min":0,"x_max":1042,"o":"m 0 0 l 0 1389 l 1042 1389 l 1042 0 l 694 0 l 694 1042 l 347 1042 l 347 0 l 0 0 z "},"O":{"ha":1215,"x_min":0,"x_max":1042,"o":"m 694 347 l 694 1042 l 347 1042 l 347 347 l 694 347 m 0 0 l 0 1389 l 1042 1389 l 1042 0 l 0 0 z "},"P":{"ha":1215,"x_min":0,"x_max":1042,"o":"m 694 868 l 694 1042 l 347 1042 l 347 868 l 694 868 m 0 0 l 0 1389 l 1042 1389 l 1042 521 l 347 521 l 347 0 l 0 0 z "},"Q":{"ha":1215,"x_min":0,"x_max":1042,"o":"m 521 347 l 521 521 l 694 521 l 694 1042 l 347 1042 l 347 347 l 521 347 m 521 -174 l 521 0 l 0 0 l 0 1389 l 1042 1389 l 1042 0 l 868 0 l 868 -174 l 521 -174 z "},"R":{"ha":1215,"x_min":0,"x_max":1042,"o":"m 694 868 l 694 1042 l 347 1042 l 347 868 l 694 868 m 0 0 l 0 1389 l 1042 1389 l 1042 694 l 1041 694 l 955 608 l 1042 521 l 1042 0 l 694 0 l 694 521 l 347 521 l 347 0 l 0 0 z "},"S":{"ha":1215,"x_min":0,"x_max":1042,"o":"m 0 0 l 0 347 l 694 347 l 694 521 l 0 521 l 0 1389 l 1042 1389 l 1042 1042 l 347 1042 l 347 868 l 1042 868 l 1042 0 l 0 0 z "},"T":{"ha":1215,"x_min":0,"x_max":1042,"o":"m 347 0 l 347 1042 l 0 1042 l 0 1389 l 1042 1389 l 1042 1042 l 694 1042 l 694 0 l 347 0 z "},"U":{"ha":1215,"x_min":0,"x_max":1042,"o":"m 0 0 l 0 1389 l 347 1389 l 347 347 l 694 347 l 694 1389 l 1042 1389 l 1042 0 l 0 0 z "},"V":{"ha":1215,"x_min":0,"x_max":1042,"o":"m 0 521 l 0 1389 l 347 1389 l 347 521 l 694 521 l 694 1389 l 1042 1389 l 1042 521 l 521 0 l 0 521 z "},"W":{"ha":1563,"x_min":0,"x_max":1389,"o":"m 0 0 l 0 1389 l 347 1389 l 347 347 l 521 347 l 521 1042 l 868 1042 l 868 347 l 1042 347 l 1042 1389 l 1389 1389 l 1389 0 l 0 0 z "},"X":{"ha":1215,"x_min":0,"x_max":1042,"o":"m 0 0 l 0 521 l 174 694 l 0 868 l 0 1389 l 347 1389 l 347 868 l 694 868 l 694 1389 l 1042 1389 l 1042 868 l 868 694 l 1042 521 l 1042 0 l 694 0 l 694 521 l 347 521 l 347 0 l 0 0 z "},"Y":{"ha":1215,"x_min":0,"x_max":1042,"o":"m 347 0 l 347 521 l 174 521 l 0 694 l 0 1389 l 347 1389 l 347 868 l 694 868 l 694 1389 l 1042 1389 l 1042 694 l 868 521 l 694 521 l 694 0 l 347 0 z "},"Z":{"ha":1215,"x_min":0,"x_max":1042,"o":"m 0 0 l 0 868 l 694 868 l 694 1042 l 0 1042 l 0 1389 l 1042 1389 l 1042 521 l 347 521 l 347 347 l 1042 347 l 1042 0 l 0 0 z "},"[":{"ha":694,"x_min":0,"x_max":521,"o":"m 0 0 l 0 1389 l 521 1389 l 521 1042 l 347 1042 l 347 347 l 521 347 l 521 0 l 0 0 z "},"\\":{"ha":694,"x_min":0,"x_max":521,"o":"m 174 0 l 174 521 l 0 694 l 0 1389 l 347 1389 l 347 868 l 521 694 l 521 0 l 174 0 z "},"]":{"ha":694,"x_min":0,"x_max":521,"o":"m 0 0 l 0 347 l 174 347 l 174 1042 l 0 1042 l 0 1389 l 521 1389 l 521 0 l 0 0 z "},"^":{"ha":868,"x_min":0,"x_max":694,"o":"m 0 868 l 0 1215 l 174 1389 l 521 1389 l 694 1215 l 694 868 l 521 868 l 347 1042 l 174 868 l 0 868 z "},"_":{"ha":1215,"x_min":0,"x_max":1042,"o":"m 0 0 l 0 347 l 1042 347 l 1042 0 l 0 0 z "},"`":{"ha":868,"x_min":0,"x_max":694,"o":"m 347 868 l 174 1042 l 0 1042 l 0 1389 l 347 1389 l 521 1215 l 694 1215 l 694 868 l 347 868 z "},"a":{"ha":1215,"x_min":0,"x_max":1042,"o":"m 694 868 l 694 1042 l 347 1042 l 347 868 l 694 868 m 0 0 l 0 1389 l 1042 1389 l 1042 0 l 694 0 l 694 521 l 347 521 l 347 0 l 0 0 z "},"b":{"ha":1215,"x_min":0,"x_max":1042,"o":"m 694 347 l 694 521 l 347 521 l 347 347 l 694 347 m 694 868 l 694 1042 l 347 1042 l 347 868 l 694 868 m 0 0 l 0 1389 l 1042 1389 l 1042 868 l 868 694 l 1042 521 l 1042 0 l 0 0 z "},"c":{"ha":1215,"x_min":0,"x_max":1042,"o":"m 0 0 l 0 1389 l 1042 1389 l 1042 868 l 694 868 l 694 1042 l 347 1042 l 347 347 l 694 347 l 694 521 l 1042 521 l 1042 0 l 0 0 z "},"d":{"ha":1215,"x_min":0,"x_max":1042,"o":"m 694 347 l 694 1042 l 347 1042 l 347 347 l 694 347 m 0 0 l 0 1389 l 868 1389 l 1042 1215 l 1042 174 l 868 0 l 0 0 z "},"e":{"ha":1215,"x_min":0,"x_max":1042,"o":"m 0 0 l 0 1389 l 1042 1389 l 1042 1042 l 347 1042 l 347 868 l 868 868 l 868 521 l 347 521 l 347 347 l 1042 347 l 1042 0 l 0 0 z "},"f":{"ha":1215,"x_min":0,"x_max":1042,"o":"m 0 0 l 0 1389 l 1042 1389 l 1042 1042 l 347 1042 l 347 868 l 868 868 l 868 521 l 347 521 l 347 0 l 0 0 z "},"g":{"ha":1215,"x_min":0,"x_max":1042,"o":"m 0 0 l 0 1389 l 1042 1389 l 1042 1042 l 347 1042 l 347 347 l 694 347 l 694 521 l 521 521 l 521 868 l 1042 868 l 1042 0 l 0 0 z "},"h":{"ha":1215,"x_min":0,"x_max":1042,"o":"m 0 0 l 0 1389 l 347 1389 l 347 868 l 694 868 l 694 1389 l 1042 1389 l 1042 0 l 694 0 l 694 521 l 347 521 l 347 0 l 0 0 z "},"i":{"ha":521,"x_min":0,"x_max":347,"o":"m 0 0 l 0 1389 l 347 1389 l 347 0 l 0 0 z "},"j":{"ha":1215,"x_min":0,"x_max":1042,"o":"m 0 0 l 0 521 l 347 521 l 347 347 l 694 347 l 694 1389 l 1042 1389 l 1042 0 l 0 0 z "},"k":{"ha":1215,"x_min":0,"x_max":1042,"o":"m 0 0 l 0 1389 l 347 1389 l 347 868 l 694 868 l 694 1389 l 1042 1389 l 1042 868 l 868 694 l 1042 521 l 1042 0 l 694 0 l 694 521 l 347 521 l 347 0 l 0 0 z "},"l":{"ha":1215,"x_min":0,"x_max":1042,"o":"m 0 0 l 0 1389 l 347 1389 l 347 347 l 1042 347 l 1042 0 l 0 0 z "},"m":{"ha":1563,"x_min":0,"x_max":1389,"o":"m 0 0 l 0 1389 l 1389 1389 l 1389 0 l 1042 0 l 1042 1042 l 868 1042 l 868 347 l 521 347 l 521 1042 l 347 1042 l 347 0 l 0 0 z "},"n":{"ha":1215,"x_min":0,"x_max":1042,"o":"m 0 0 l 0 1389 l 1042 1389 l 1042 0 l 694 0 l 694 1042 l 347 1042 l 347 0 l 0 0 z "},"o":{"ha":1215,"x_min":0,"x_max":1042,"o":"m 694 347 l 694 1042 l 347 1042 l 347 347 l 694 347 m 0 0 l 0 1389 l 1042 1389 l 1042 0 l 0 0 z "},"p":{"ha":1215,"x_min":0,"x_max":1042,"o":"m 694 868 l 694 1042 l 347 1042 l 347 868 l 694 868 m 0 0 l 0 1389 l 1042 1389 l 1042 521 l 347 521 l 347 0 l 0 0 z "},"q":{"ha":1215,"x_min":0,"x_max":1042,"o":"m 521 347 l 521 521 l 694 521 l 694 1042 l 347 1042 l 347 347 l 521 347 m 521 -174 l 521 0 l 0 0 l 0 1389 l 1042 1389 l 1042 0 l 868 0 l 868 -174 l 521 -174 z "},"r":{"ha":1215,"x_min":0,"x_max":1042,"o":"m 694 868 l 694 1042 l 347 1042 l 347 868 l 694 868 m 0 0 l 0 1389 l 1042 1389 l 1042 694 l 1041 694 l 955 608 l 1042 521 l 1042 0 l 694 0 l 694 521 l 347 521 l 347 0 l 0 0 z "},"s":{"ha":1215,"x_min":0,"x_max":1042,"o":"m 0 0 l 0 347 l 694 347 l 694 521 l 0 521 l 0 1389 l 1042 1389 l 1042 1042 l 347 1042 l 347 868 l 1042 868 l 1042 0 l 0 0 z "},"t":{"ha":1215,"x_min":0,"x_max":1042,"o":"m 347 0 l 347 1042 l 0 1042 l 0 1389 l 1042 1389 l 1042 1042 l 694 1042 l 694 0 l 347 0 z "},"u":{"ha":1215,"x_min":0,"x_max":1042,"o":"m 0 0 l 0 1389 l 347 1389 l 347 347 l 694 347 l 694 1389 l 1042 1389 l 1042 0 l 0 0 z "},"v":{"ha":1215,"x_min":0,"x_max":1042,"o":"m 347 0 l 0 347 l 0 1389 l 347 1389 l 347 347 l 694 347 l 694 1389 l 1042 1389 l 1042 347 l 694 0 l 347 0 z "},"w":{"ha":1563,"x_min":0,"x_max":1389,"o":"m 0 0 l 0 1389 l 347 1389 l 347 347 l 521 347 l 521 1042 l 868 1042 l 868 347 l 1042 347 l 1042 1389 l 1389 1389 l 1389 0 l 0 0 z "},"x":{"ha":1215,"x_min":0,"x_max":1042,"o":"m 0 0 l 0 521 l 174 694 l 0 868 l 0 1389 l 347 1389 l 347 868 l 694 868 l 694 1389 l 1042 1389 l 1042 868 l 868 694 l 1042 521 l 1042 0 l 694 0 l 694 521 l 347 521 l 347 0 l 0 0 z "},"y":{"ha":1215,"x_min":0,"x_max":1042,"o":"m 347 0 l 347 521 l 174 521 l 0 694 l 0 1389 l 347 1389 l 347 868 l 694 868 l 694 1389 l 1042 1389 l 1042 694 l 868 521 l 694 521 l 694 0 l 347 0 z "},"z":{"ha":1215,"x_min":0,"x_max":1042,"o":"m 0 0 l 0 868 l 694 868 l 694 1042 l 0 1042 l 0 1389 l 1042 1389 l 1042 521 l 347 521 l 347 347 l 1042 347 l 1042 0 l 0 0 z "},"{":{"ha":868,"x_min":0,"x_max":694,"o":"m 174 0 l 174 521 l 0 521 l 0 868 l 174 868 l 174 1389 l 694 1389 l 694 1042 l 521 1042 l 521 347 l 694 347 l 694 0 l 174 0 z "},"|":{"ha":521,"x_min":0,"x_max":347,"o":"m 0 0 l 0 1389 l 347 1389 l 347 0 l 0 0 z "},"}":{"ha":868,"x_min":0,"x_max":694,"o":"m 0 0 l 0 347 l 174 347 l 174 1042 l 0 1042 l 0 1389 l 521 1389 l 521 868 l 694 868 l 694 521 l 521 521 l 521 0 l 0 0 z "},"~":{"ha":1389,"x_min":0,"x_max":1215,"o":"m 0 521 l 0 868 l 174 1042 l 521 1042 l 694 868 l 868 868 l 1042 1042 l 1215 1042 l 1215 694 l 1042 521 l 521 521 l 347 694 l 174 521 l 0 521 z "},"¡":{"ha":521,"x_min":0,"x_max":347,"o":"m 0 0 l 0 868 l 347 868 l 347 0 l 0 0 m 0 1042 l 0 1389 l 347 1389 l 347 1042 l 0 1042 z "},"¢":{"ha":1215,"x_min":0,"x_max":1042,"o":"m 347 -174 l 347 0 l 0 0 l 0 1389 l 347 1389 l 347 1563 l 694 1563 l 694 1389 l 1042 1389 l 1042 868 l 694 868 l 694 1042 l 347 1042 l 347 347 l 694 347 l 694 521 l 1042 521 l 1042 0 l 694 0 l 694 -174 l 347 -174 z "},"£":{"ha":1389,"x_min":0,"x_max":1215,"o":"m 174 0 l 174 521 l 0 521 l 0 868 l 174 868 l 174 1389 l 1215 1389 l 1215 1042 l 521 1042 l 521 868 l 868 868 l 868 521 l 521 521 l 521 347 l 1215 347 l 1215 0 l 174 0 z "},"¤":{"ha":1215,"x_min":0,"x_max":1042,"o":"m 694 347 l 694 1042 l 347 1042 l 347 347 l 694 347 m 0 0 l 0 1389 l 1042 1389 l 1042 0 l 0 0 z "},"¥":{"ha":1215,"x_min":0,"x_max":1042,"o":"m 347 0 l 347 347 l 0 347 l 0 694 l 347 694 l 347 868 l 174 868 l 0 1042 l 0 1389 l 347 1389 l 347 1215 l 694 1215 l 694 1389 l 1042 1389 l 1042 1042 l 868 868 l 694 868 l 694 694 l 1042 694 l 1042 347 l 694 347 l 694 0 l 347 0 z "},"¦":{"ha":521,"x_min":0,"x_max":347,"o":"m 0 0 l 0 521 l 347 521 l 347 0 l 0 0 m 0 868 l 0 1389 l 347 1389 l 347 868 l 0 868 z "},"§":{"ha":1215,"x_min":0,"x_max":1042,"o":"m 694 347 l 694 1042 l 347 1042 l 347 347 l 694 347 m 0 0 l 0 1389 l 1042 1389 l 1042 0 l 0 0 z "},"¨":{"ha":1042,"x_min":0,"x_max":868,"o":"m 0 1042 l 0 1389 l 347 1389 l 347 1042 l 0 1042 m 521 1042 l 521 1389 l 868 1389 l 868 1042 l 521 1042 z "},"©":{"ha":1910,"x_min":0,"x_max":1736,"o":"m 347 -347 l 347 -174 l 0 -174 l 0 521 l 347 521 l 347 1736 l 694 1736 l 694 868 l 868 868 l 868 1215 l 1215 1215 l 1215 868 l 1389 868 l 1389 1215 l 1736 1215 l 1736 -347 l 347 -347 z "},"ª":{"ha":868,"x_min":0,"x_max":694,"o":"m 0 868 l 0 1389 l 521 1389 l 521 1215 l 694 1215 l 694 868 l 0 868 z "},"«":{"ha":1389,"x_min":0,"x_max":1215,"o":"m 174 0 l 174 174 l 0 174 l 0 694 l 174 694 l 174 868 l 521 868 l 521 521 l 347 521 l 347 347 l 521 347 l 521 0 l 174 0 m 868 0 l 868 174 l 694 174 l 694 694 l 868 694 l 868 868 l 1215 868 l 1215 521 l 1042 521 l 1042 347 l 1215 347 l 1215 0 l 868 0 z "},"¬":{"ha":1215,"x_min":0,"x_max":1042,"o":"m 694 174 l 694 521 l 0 521 l 0 868 l 1042 868 l 1042 174 l 694 174 z "},"­":{"ha":1215,"x_min":0,"x_max":1042,"o":"m 0 521 l 0 868 l 1042 868 l 1042 521 l 0 521 z "},"®":{"ha":2257,"x_min":0,"x_max":2083,"o":"m 1910 -347 l 1910 1215 l 1563 1215 l 1563 521 l 1389 521 l 1389 1215 l 1042 1215 l 1042 521 l 868 521 l 868 1736 l 521 1736 l 521 0 l 347 0 l 347 521 l 174 521 l 174 -174 l 521 -174 l 521 -347 l 1910 -347 m 347 -521 l 347 -347 l 0 -347 l 0 694 l 347 694 l 347 1910 l 1042 1910 l 1042 1389 l 2083 1389 l 2083 -521 l 347 -521 z "},"¯":{"ha":1215,"x_min":0,"x_max":1042,"o":"m 0 1042 l 0 1389 l 1042 1389 l 1042 1042 l 0 1042 z "},"°":{"ha":694,"x_min":0,"x_max":521,"o":"m 0 868 l 0 1389 l 521 1389 l 521 868 l 0 868 z "},"±":{"ha":1215,"x_min":0,"x_max":1042,"o":"m 0 0 l 0 347 l 347 347 l 347 521 l 0 521 l 0 868 l 347 868 l 347 1215 l 694 1215 l 694 868 l 1042 868 l 1042 521 l 694 521 l 694 347 l 1042 347 l 1042 0 l 0 0 z "},"²":{"ha":694,"x_min":0,"x_max":521,"o":"m 0 694 l 0 1042 l 174 1042 l 174 1215 l 0 1215 l 0 1389 l 521 1389 l 521 1042 l 347 1042 l 347 868 l 521 868 l 521 694 l 0 694 z "},"³":{"ha":694,"x_min":0,"x_max":521,"o":"m 0 694 l 0 868 l 174 868 l 174 1215 l 0 1215 l 0 1389 l 521 1389 l 521 694 l 0 694 z "},"´":{"ha":868,"x_min":0,"x_max":694,"o":"m 0 868 l 0 1215 l 174 1215 l 347 1389 l 694 1389 l 694 1042 l 521 1042 l 347 868 l 0 868 z "},"µ":{"ha":1215,"x_min":0,"x_max":1042,"o":"m 0 -347 l 0 1042 l 347 1042 l 347 347 l 694 347 l 694 1042 l 1042 1042 l 1042 -174 l 694 -174 l 694 0 l 347 0 l 347 -347 l 0 -347 z "},"¶":{"ha":1389,"x_min":0,"x_max":1215,"o":"m 347 0 l 347 521 l 0 521 l 0 1389 l 1215 1389 l 1215 0 l 868 0 l 868 1042 l 694 1042 l 694 0 l 347 0 z "},"·":{"ha":521,"x_min":0,"x_max":347,"o":"m 0 521 l 0 868 l 347 868 l 347 521 l 0 521 z "},"¸":{"ha":868,"x_min":174,"x_max":694,"o":"m 174 -521 l 174 -174 l 347 -174 l 347 0 l 694 0 l 694 -347 l 521 -521 l 174 -521 z "},"¹":{"ha":521,"x_min":0,"x_max":347,"o":"m 0 694 l 0 1389 l 347 1389 l 347 694 l 0 694 z "},"º":{"ha":694,"x_min":0,"x_max":521,"o":"m 0 868 l 0 1389 l 521 1389 l 521 868 l 0 868 z "},"»":{"ha":1389,"x_min":0,"x_max":1215,"o":"m 0 0 l 0 347 l 174 347 l 174 521 l 0 521 l 0 868 l 347 868 l 347 694 l 521 694 l 521 174 l 347 174 l 347 0 l 0 0 m 694 0 l 694 347 l 868 347 l 868 521 l 694 521 l 694 868 l 1042 868 l 1042 694 l 1215 694 l 1215 174 l 1042 174 l 1042 0 l 694 0 z "},"¼":{"ha":1215,"x_min":0,"x_max":1042,"o":"m 694 347 l 694 1042 l 347 1042 l 347 347 l 694 347 m 0 0 l 0 1389 l 1042 1389 l 1042 0 l 0 0 z "},"½":{"ha":1215,"x_min":0,"x_max":1042,"o":"m 694 347 l 694 1042 l 347 1042 l 347 347 l 694 347 m 0 0 l 0 1389 l 1042 1389 l 1042 0 l 0 0 z "},"¾":{"ha":1215,"x_min":0,"x_max":1042,"o":"m 694 347 l 694 1042 l 347 1042 l 347 347 l 694 347 m 0 0 l 0 1389 l 1042 1389 l 1042 0 l 0 0 z "},"¿":{"ha":1215,"x_min":0,"x_max":1042,"o":"m 0 0 l 0 868 l 868 868 l 868 521 l 347 521 l 347 347 l 1042 347 l 1042 0 l 0 0 m 521 1042 l 521 1389 l 868 1389 l 868 1042 l 521 1042 z "},"À":{"ha":1215,"x_min":0,"x_max":1042,"o":"m 694 868 l 694 1042 l 347 1042 l 347 868 l 694 868 m 0 0 l 0 1389 l 1042 1389 l 1042 0 l 694 0 l 694 521 l 347 521 l 347 0 l 0 0 m 521 1563 l 347 1736 l 347 1910 l 521 1910 l 694 1736 l 694 1563 l 521 1563 z "},"Á":{"ha":1215,"x_min":0,"x_max":1042,"o":"m 694 868 l 694 1042 l 347 1042 l 347 868 l 694 868 m 0 0 l 0 1389 l 1042 1389 l 1042 0 l 694 0 l 694 521 l 347 521 l 347 0 l 0 0 m 347 1563 l 347 1736 l 521 1910 l 694 1910 l 694 1736 l 521 1563 l 347 1563 z "},"Â":{"ha":1215,"x_min":0,"x_max":1042,"o":"m 694 868 l 694 1042 l 347 1042 l 347 868 l 694 868 m 0 0 l 0 1389 l 1042 1389 l 1042 0 l 694 0 l 694 521 l 347 521 l 347 0 l 0 0 m 174 1563 l 174 1736 l 347 1910 l 694 1910 l 868 1736 l 868 1563 l 694 1563 l 521 1736 l 347 1563 l 174 1563 z "},"Ã":{"ha":1215,"x_min":0,"x_max":1042,"o":"m 694 868 l 694 1042 l 347 1042 l 347 868 l 694 868 m 0 0 l 0 1389 l 1042 1389 l 1042 0 l 694 0 l 694 521 l 347 521 l 347 0 l 0 0 m 0 1563 l 0 1736 l 174 1910 l 521 1910 l 521 1909 l 608 1823 l 694 1910 l 1042 1910 l 1042 1736 l 868 1563 l 521 1563 l 521 1563 l 434 1649 l 347 1563 l 0 1563 z "},"Ä":{"ha":1215,"x_min":0,"x_max":1042,"o":"m 694 868 l 694 1042 l 347 1042 l 347 868 l 694 868 m 0 0 l 0 1389 l 1042 1389 l 1042 0 l 694 0 l 694 521 l 347 521 l 347 0 l 0 0 m 0 1563 l 0 1910 l 347 1910 l 347 1563 l 0 1563 m 694 1563 l 694 1910 l 1042 1910 l 1042 1563 l 694 1563 z "},"Å":{"ha":1215,"x_min":0,"x_max":1042,"o":"m 694 868 l 694 1042 l 347 1042 l 347 868 l 694 868 m 694 1389 l 694 1563 l 347 1563 l 347 1389 l 694 1389 m 0 0 l 0 1910 l 1042 1910 l 1042 0 l 694 0 l 694 521 l 347 521 l 347 0 l 0 0 z "},"Æ":{"ha":1910,"x_min":0,"x_max":1736,"o":"m 694 868 l 694 1042 l 347 1042 l 347 868 l 694 868 m 0 0 l 0 1389 l 1736 1389 l 1736 1042 l 1042 1042 l 1042 868 l 1563 868 l 1563 521 l 1042 521 l 1042 347 l 1736 347 l 1736 0 l 694 0 l 694 521 l 347 521 l 347 0 l 0 0 z "},"Ç":{"ha":1215,"x_min":0,"x_max":1042,"o":"m 174 -521 l 174 -174 l 347 -174 l 347 0 l 0 0 l 0 1389 l 1042 1389 l 1042 868 l 694 868 l 694 1042 l 347 1042 l 347 347 l 694 347 l 694 521 l 1042 521 l 1042 0 l 694 0 l 694 -347 l 521 -521 l 174 -521 z "},"È":{"ha":1215,"x_min":0,"x_max":1042,"o":"m 0 0 l 0 1389 l 1042 1389 l 1042 1042 l 347 1042 l 347 868 l 868 868 l 868 521 l 347 521 l 347 347 l 1042 347 l 1042 0 l 0 0 m 521 1563 l 347 1736 l 347 1910 l 521 1910 l 694 1736 l 694 1563 l 521 1563 z "},"É":{"ha":1215,"x_min":0,"x_max":1042,"o":"m 0 0 l 0 1389 l 1042 1389 l 1042 1042 l 347 1042 l 347 868 l 868 868 l 868 521 l 347 521 l 347 347 l 1042 347 l 1042 0 l 0 0 m 347 1563 l 347 1736 l 521 1910 l 694 1910 l 694 1736 l 521 1563 l 347 1563 z "},"Ê":{"ha":1215,"x_min":0,"x_max":1042,"o":"m 0 0 l 0 1389 l 1042 1389 l 1042 1042 l 347 1042 l 347 868 l 868 868 l 868 521 l 347 521 l 347 347 l 1042 347 l 1042 0 l 0 0 m 174 1563 l 174 1736 l 347 1910 l 694 1910 l 868 1736 l 868 1563 l 694 1563 l 521 1736 l 347 1563 l 174 1563 z "},"Ë":{"ha":1215,"x_min":0,"x_max":1042,"o":"m 0 0 l 0 1389 l 1042 1389 l 1042 1042 l 347 1042 l 347 868 l 868 868 l 868 521 l 347 521 l 347 347 l 1042 347 l 1042 0 l 0 0 m 0 1563 l 0 1910 l 347 1910 l 347 1563 l 0 1563 m 694 1563 l 694 1910 l 1042 1910 l 1042 1563 l 694 1563 z "},"Ì":{"ha":521,"x_min":0,"x_max":347,"o":"m 0 0 l 0 1389 l 347 1389 l 347 0 l 0 0 m 174 1563 l 0 1736 l 0 1910 l 174 1910 l 347 1736 l 347 1563 l 174 1563 z "},"Í":{"ha":521,"x_min":0,"x_max":347,"o":"m 0 0 l 0 1389 l 347 1389 l 347 0 l 0 0 m 0 1563 l 0 1736 l 174 1910 l 347 1910 l 347 1736 l 174 1563 l 0 1563 z "},"Î":{"ha":521,"x_min":-174,"x_max":521,"o":"m 0 0 l 0 1389 l 347 1389 l 347 0 l 0 0 m -174 1563 l -174 1736 l 0 1910 l 347 1910 l 521 1736 l 521 1563 l 347 1563 l 174 1736 l 0 1563 l -174 1563 z "},"Ï":{"ha":521,"x_min":-347,"x_max":694,"o":"m 0 0 l 0 1389 l 347 1389 l 347 0 l 0 0 m -347 1563 l -347 1910 l 0 1910 l 0 1563 l -347 1563 m 347 1563 l 347 1910 l 694 1910 l 694 1563 l 347 1563 z "},"Ð":{"ha":1389,"x_min":0,"x_max":1215,"o":"m 868 347 l 868 1042 l 521 1042 l 521 868 l 694 868 l 694 521 l 521 521 l 521 347 l 868 347 m 174 0 l 174 521 l 0 521 l 0 868 l 174 868 l 174 1389 l 1042 1389 l 1215 1215 l 1215 174 l 1042 0 l 174 0 z "},"Ñ":{"ha":1215,"x_min":0,"x_max":1042,"o":"m 0 0 l 0 1389 l 1042 1389 l 1042 0 l 694 0 l 694 1042 l 347 1042 l 347 0 l 0 0 m 0 1563 l 0 1736 l 174 1910 l 521 1910 l 521 1909 l 608 1823 l 694 1910 l 1042 1910 l 1042 1736 l 868 1563 l 521 1563 l 521 1563 l 434 1649 l 347 1563 l 0 1563 z "},"Ò":{"ha":1215,"x_min":0,"x_max":1042,"o":"m 694 347 l 694 1042 l 347 1042 l 347 347 l 694 347 m 0 0 l 0 1389 l 1042 1389 l 1042 0 l 0 0 m 521 1563 l 347 1736 l 347 1910 l 521 1910 l 694 1736 l 694 1563 l 521 1563 z "},"Ó":{"ha":1215,"x_min":0,"x_max":1042,"o":"m 694 347 l 694 1042 l 347 1042 l 347 347 l 694 347 m 0 0 l 0 1389 l 1042 1389 l 1042 0 l 0 0 m 347 1563 l 347 1736 l 521 1910 l 694 1910 l 694 1736 l 521 1563 l 347 1563 z "},"Ô":{"ha":1215,"x_min":0,"x_max":1042,"o":"m 694 347 l 694 1042 l 347 1042 l 347 347 l 694 347 m 0 0 l 0 1389 l 1042 1389 l 1042 0 l 0 0 m 174 1563 l 174 1736 l 347 1910 l 694 1910 l 868 1736 l 868 1563 l 694 1563 l 521 1736 l 347 1563 l 174 1563 z "},"Õ":{"ha":1215,"x_min":0,"x_max":1042,"o":"m 694 347 l 694 1042 l 347 1042 l 347 347 l 694 347 m 0 0 l 0 1389 l 1042 1389 l 1042 0 l 0 0 m 0 1563 l 0 1736 l 174 1910 l 521 1910 l 521 1909 l 608 1823 l 694 1910 l 1042 1910 l 1042 1736 l 868 1563 l 521 1563 l 521 1563 l 434 1649 l 347 1563 l 0 1563 z "},"Ö":{"ha":1215,"x_min":0,"x_max":1042,"o":"m 694 347 l 694 1042 l 347 1042 l 347 347 l 694 347 m 0 0 l 0 1389 l 1042 1389 l 1042 0 l 0 0 m 0 1563 l 0 1910 l 347 1910 l 347 1563 l 0 1563 m 694 1563 l 694 1910 l 1042 1910 l 1042 1563 l 694 1563 z "},"×":{"ha":1563,"x_min":0,"x_max":1389,"o":"m 0 0 l 0 347 l 174 347 l 174 521 l 347 521 l 347 868 l 174 868 l 174 1042 l 0 1042 l 0 1389 l 347 1389 l 347 1215 l 521 1215 l 521 1042 l 868 1042 l 868 1215 l 1042 1215 l 1042 1389 l 1389 1389 l 1389 1042 l 1215 1042 l 1215 868 l 1042 868 l 1042 521 l 1215 521 l 1215 347 l 1389 347 l 1389 0 l 1042 0 l 1042 174 l 868 174 l 868 347 l 521 347 l 521 174 l 347 174 l 347 0 l 0 0 z "},"Ø":{"ha":1215,"x_min":0,"x_max":1042,"o":"m 694 347 l 694 521 l 521 521 l 521 347 l 694 347 m 521 868 l 521 1042 l 347 1042 l 347 868 l 521 868 m 0 0 l 0 1389 l 1042 1389 l 1042 0 l 0 0 z "},"Ù":{"ha":1215,"x_min":0,"x_max":1042,"o":"m 0 0 l 0 1389 l 347 1389 l 347 347 l 694 347 l 694 1389 l 1042 1389 l 1042 0 l 0 0 m 521 1563 l 347 1736 l 347 1910 l 521 1910 l 694 1736 l 694 1563 l 521 1563 z "},"Ú":{"ha":1215,"x_min":0,"x_max":1042,"o":"m 0 0 l 0 1389 l 347 1389 l 347 347 l 694 347 l 694 1389 l 1042 1389 l 1042 0 l 0 0 m 347 1563 l 347 1736 l 521 1910 l 694 1910 l 694 1736 l 521 1563 l 347 1563 z "},"Û":{"ha":1215,"x_min":0,"x_max":1042,"o":"m 0 0 l 0 1389 l 347 1389 l 347 347 l 694 347 l 694 1389 l 1042 1389 l 1042 0 l 0 0 m 174 1563 l 174 1736 l 347 1910 l 694 1910 l 868 1736 l 868 1563 l 694 1563 l 521 1736 l 347 1563 l 174 1563 z "},"Ü":{"ha":1215,"x_min":0,"x_max":1042,"o":"m 0 0 l 0 1389 l 347 1389 l 347 347 l 694 347 l 694 1389 l 1042 1389 l 1042 0 l 0 0 m 0 1563 l 0 1910 l 347 1910 l 347 1563 l 0 1563 m 694 1563 l 694 1910 l 1042 1910 l 1042 1563 l 694 1563 z "},"Ý":{"ha":1215,"x_min":0,"x_max":1042,"o":"m 347 0 l 347 521 l 174 521 l 0 694 l 0 1389 l 347 1389 l 347 868 l 694 868 l 694 1389 l 1042 1389 l 1042 694 l 868 521 l 694 521 l 694 0 l 347 0 m 347 1563 l 347 1736 l 521 1910 l 694 1910 l 694 1736 l 521 1563 l 347 1563 z "},"Þ":{"ha":1215,"x_min":0,"x_max":1042,"o":"m 694 521 l 694 868 l 347 868 l 347 521 l 694 521 m 0 0 l 0 1389 l 347 1389 l 347 1215 l 1042 1215 l 1042 174 l 347 174 l 347 0 l 0 0 z "},"ß":{"ha":1215,"x_min":0,"x_max":1042,"o":"m 694 868 l 694 1042 l 347 1042 l 347 868 l 694 868 m 0 0 l 0 1215 l 174 1389 l 868 1389 l 1042 1215 l 1042 868 l 868 694 l 1042 521 l 1042 174 l 868 0 l 521 0 l 521 347 l 694 347 l 694 521 l 347 521 l 347 0 l 0 0 z "},"à":{"ha":1215,"x_min":0,"x_max":1042,"o":"m 694 868 l 694 1042 l 347 1042 l 347 868 l 694 868 m 0 0 l 0 1389 l 1042 1389 l 1042 0 l 694 0 l 694 521 l 347 521 l 347 0 l 0 0 m 521 1563 l 347 1736 l 347 1910 l 521 1910 l 694 1736 l 694 1563 l 521 1563 z "},"á":{"ha":1215,"x_min":0,"x_max":1042,"o":"m 694 868 l 694 1042 l 347 1042 l 347 868 l 694 868 m 0 0 l 0 1389 l 1042 1389 l 1042 0 l 694 0 l 694 521 l 347 521 l 347 0 l 0 0 m 347 1563 l 347 1736 l 521 1910 l 694 1910 l 694 1736 l 521 1563 l 347 1563 z "},"â":{"ha":1215,"x_min":0,"x_max":1042,"o":"m 694 868 l 694 1042 l 347 1042 l 347 868 l 694 868 m 0 0 l 0 1389 l 1042 1389 l 1042 0 l 694 0 l 694 521 l 347 521 l 347 0 l 0 0 m 174 1563 l 174 1736 l 347 1910 l 694 1910 l 868 1736 l 868 1563 l 694 1563 l 521 1736 l 347 1563 l 174 1563 z "},"ã":{"ha":1215,"x_min":0,"x_max":1042,"o":"m 694 868 l 694 1042 l 347 1042 l 347 868 l 694 868 m 0 0 l 0 1389 l 1042 1389 l 1042 0 l 694 0 l 694 521 l 347 521 l 347 0 l 0 0 m 0 1563 l 0 1736 l 174 1910 l 521 1910 l 521 1909 l 608 1823 l 694 1910 l 1042 1910 l 1042 1736 l 868 1563 l 521 1563 l 521 1563 l 434 1649 l 347 1563 l 0 1563 z "},"ä":{"ha":1215,"x_min":0,"x_max":1042,"o":"m 694 868 l 694 1042 l 347 1042 l 347 868 l 694 868 m 0 0 l 0 1389 l 1042 1389 l 1042 0 l 694 0 l 694 521 l 347 521 l 347 0 l 0 0 m 0 1563 l 0 1910 l 347 1910 l 347 1563 l 0 1563 m 694 1563 l 694 1910 l 1042 1910 l 1042 1563 l 694 1563 z "},"å":{"ha":1215,"x_min":0,"x_max":1042,"o":"m 694 868 l 694 1042 l 347 1042 l 347 868 l 694 868 m 694 1389 l 694 1563 l 347 1563 l 347 1389 l 694 1389 m 0 0 l 0 1910 l 1042 1910 l 1042 0 l 694 0 l 694 521 l 347 521 l 347 0 l 0 0 z "},"æ":{"ha":1910,"x_min":0,"x_max":1736,"o":"m 694 868 l 694 1042 l 347 1042 l 347 868 l 694 868 m 0 0 l 0 1389 l 1736 1389 l 1736 1042 l 1042 1042 l 1042 868 l 1563 868 l 1563 521 l 1042 521 l 1042 347 l 1736 347 l 1736 0 l 694 0 l 694 521 l 347 521 l 347 0 l 0 0 z "},"ç":{"ha":1215,"x_min":0,"x_max":1042,"o":"m 174 -521 l 174 -174 l 347 -174 l 347 0 l 0 0 l 0 1389 l 1042 1389 l 1042 868 l 694 868 l 694 1042 l 347 1042 l 347 347 l 694 347 l 694 521 l 1042 521 l 1042 0 l 694 0 l 694 -347 l 521 -521 l 174 -521 z "},"è":{"ha":1215,"x_min":0,"x_max":1042,"o":"m 0 0 l 0 1389 l 1042 1389 l 1042 1042 l 347 1042 l 347 868 l 868 868 l 868 521 l 347 521 l 347 347 l 1042 347 l 1042 0 l 0 0 m 521 1563 l 347 1736 l 347 1910 l 521 1910 l 694 1736 l 694 1563 l 521 1563 z "},"é":{"ha":1215,"x_min":0,"x_max":1042,"o":"m 0 0 l 0 1389 l 1042 1389 l 1042 1042 l 347 1042 l 347 868 l 868 868 l 868 521 l 347 521 l 347 347 l 1042 347 l 1042 0 l 0 0 m 347 1563 l 347 1736 l 521 1910 l 694 1910 l 694 1736 l 521 1563 l 347 1563 z "},"ê":{"ha":1215,"x_min":0,"x_max":1042,"o":"m 0 0 l 0 1389 l 1042 1389 l 1042 1042 l 347 1042 l 347 868 l 868 868 l 868 521 l 347 521 l 347 347 l 1042 347 l 1042 0 l 0 0 m 174 1563 l 174 1736 l 347 1910 l 694 1910 l 868 1736 l 868 1563 l 694 1563 l 521 1736 l 347 1563 l 174 1563 z "},"ë":{"ha":1215,"x_min":0,"x_max":1042,"o":"m 0 0 l 0 1389 l 1042 1389 l 1042 1042 l 347 1042 l 347 868 l 868 868 l 868 521 l 347 521 l 347 347 l 1042 347 l 1042 0 l 0 0 m 0 1563 l 0 1910 l 347 1910 l 347 1563 l 0 1563 m 694 1563 l 694 1910 l 1042 1910 l 1042 1563 l 694 1563 z "},"ì":{"ha":521,"x_min":0,"x_max":347,"o":"m 0 0 l 0 1389 l 347 1389 l 347 0 l 0 0 m 174 1563 l 0 1736 l 0 1910 l 174 1910 l 347 1736 l 347 1563 l 174 1563 z "},"í":{"ha":521,"x_min":0,"x_max":347,"o":"m 0 0 l 0 1389 l 347 1389 l 347 0 l 0 0 m 0 1563 l 0 1736 l 174 1910 l 347 1910 l 347 1736 l 174 1563 l 0 1563 z "},"î":{"ha":521,"x_min":-174,"x_max":521,"o":"m 0 0 l 0 1389 l 347 1389 l 347 0 l 0 0 m -174 1563 l -174 1736 l 0 1910 l 347 1910 l 521 1736 l 521 1563 l 347 1563 l 174 1736 l 0 1563 l -174 1563 z "},"ï":{"ha":521,"x_min":-347,"x_max":694,"o":"m 0 0 l 0 1389 l 347 1389 l 347 0 l 0 0 m -347 1563 l -347 1910 l 0 1910 l 0 1563 l -347 1563 m 347 1563 l 347 1910 l 694 1910 l 694 1563 l 347 1563 z "},"ð":{"ha":1389,"x_min":0,"x_max":1215,"o":"m 868 347 l 868 1042 l 521 1042 l 521 868 l 694 868 l 694 521 l 521 521 l 521 347 l 868 347 m 174 0 l 174 521 l 0 521 l 0 868 l 174 868 l 174 1389 l 1042 1389 l 1215 1215 l 1215 174 l 1042 0 l 174 0 z "},"ñ":{"ha":1215,"x_min":0,"x_max":1042,"o":"m 0 0 l 0 1389 l 1042 1389 l 1042 0 l 694 0 l 694 1042 l 347 1042 l 347 0 l 0 0 m 0 1563 l 0 1736 l 174 1910 l 521 1910 l 521 1909 l 608 1823 l 694 1910 l 1042 1910 l 1042 1736 l 868 1563 l 521 1563 l 521 1563 l 434 1649 l 347 1563 l 0 1563 z "},"ò":{"ha":1215,"x_min":0,"x_max":1042,"o":"m 694 347 l 694 1042 l 347 1042 l 347 347 l 694 347 m 0 0 l 0 1389 l 1042 1389 l 1042 0 l 0 0 m 521 1563 l 347 1736 l 347 1910 l 521 1910 l 694 1736 l 694 1563 l 521 1563 z "},"ó":{"ha":1215,"x_min":0,"x_max":1042,"o":"m 694 347 l 694 1042 l 347 1042 l 347 347 l 694 347 m 0 0 l 0 1389 l 1042 1389 l 1042 0 l 0 0 m 347 1563 l 347 1736 l 521 1910 l 694 1910 l 694 1736 l 521 1563 l 347 1563 z "},"ô":{"ha":1215,"x_min":0,"x_max":1042,"o":"m 694 347 l 694 1042 l 347 1042 l 347 347 l 694 347 m 0 0 l 0 1389 l 1042 1389 l 1042 0 l 0 0 m 174 1563 l 174 1736 l 347 1910 l 694 1910 l 868 1736 l 868 1563 l 694 1563 l 521 1736 l 347 1563 l 174 1563 z "},"õ":{"ha":1215,"x_min":0,"x_max":1042,"o":"m 694 347 l 694 1042 l 347 1042 l 347 347 l 694 347 m 0 0 l 0 1389 l 1042 1389 l 1042 0 l 0 0 m 0 1563 l 0 1736 l 174 1910 l 521 1910 l 521 1909 l 608 1823 l 694 1910 l 1042 1910 l 1042 1736 l 868 1563 l 521 1563 l 521 1563 l 434 1649 l 347 1563 l 0 1563 z "},"ö":{"ha":1215,"x_min":0,"x_max":1042,"o":"m 694 347 l 694 1042 l 347 1042 l 347 347 l 694 347 m 0 0 l 0 1389 l 1042 1389 l 1042 0 l 0 0 m 0 1563 l 0 1910 l 347 1910 l 347 1563 l 0 1563 m 694 1563 l 694 1910 l 1042 1910 l 1042 1563 l 694 1563 z "},"÷":{"ha":1215,"x_min":0,"x_max":1042,"o":"m 347 0 l 347 347 l 694 347 l 694 0 l 347 0 m 0 521 l 0 868 l 1042 868 l 1042 521 l 0 521 m 347 1042 l 347 1389 l 694 1389 l 694 1042 l 347 1042 z "},"ø":{"ha":1215,"x_min":0,"x_max":1042,"o":"m 694 347 l 694 521 l 521 521 l 521 347 l 694 347 m 521 868 l 521 1042 l 347 1042 l 347 868 l 521 868 m 0 0 l 0 1389 l 1042 1389 l 1042 0 l 0 0 z "},"ù":{"ha":1215,"x_min":0,"x_max":1042,"o":"m 0 0 l 0 1389 l 347 1389 l 347 347 l 694 347 l 694 1389 l 1042 1389 l 1042 0 l 0 0 m 521 1563 l 347 1736 l 347 1910 l 521 1910 l 694 1736 l 694 1563 l 521 1563 z "},"ú":{"ha":1215,"x_min":0,"x_max":1042,"o":"m 0 0 l 0 1389 l 347 1389 l 347 347 l 694 347 l 694 1389 l 1042 1389 l 1042 0 l 0 0 m 347 1563 l 347 1736 l 521 1910 l 694 1910 l 694 1736 l 521 1563 l 347 1563 z "},"û":{"ha":1215,"x_min":0,"x_max":1042,"o":"m 0 0 l 0 1389 l 347 1389 l 347 347 l 694 347 l 694 1389 l 1042 1389 l 1042 0 l 0 0 m 174 1563 l 174 1736 l 347 1910 l 694 1910 l 868 1736 l 868 1563 l 694 1563 l 521 1736 l 347 1563 l 174 1563 z "},"ü":{"ha":1215,"x_min":0,"x_max":1042,"o":"m 0 0 l 0 1389 l 347 1389 l 347 347 l 694 347 l 694 1389 l 1042 1389 l 1042 0 l 0 0 m 0 1563 l 0 1910 l 347 1910 l 347 1563 l 0 1563 m 694 1563 l 694 1910 l 1042 1910 l 1042 1563 l 694 1563 z "},"ý":{"ha":1215,"x_min":0,"x_max":1042,"o":"m 347 0 l 347 521 l 174 521 l 0 694 l 0 1389 l 347 1389 l 347 868 l 694 868 l 694 1389 l 1042 1389 l 1042 694 l 868 521 l 694 521 l 694 0 l 347 0 m 347 1563 l 347 1736 l 521 1910 l 694 1910 l 694 1736 l 521 1563 l 347 1563 z "},"þ":{"ha":1215,"x_min":0,"x_max":1042,"o":"m 694 521 l 694 694 l 347 694 l 347 521 l 694 521 m 0 0 l 0 1389 l 347 1389 l 347 1042 l 1042 1042 l 1042 174 l 347 174 l 347 0 l 0 0 z "},"ÿ":{"ha":1215,"x_min":0,"x_max":1042,"o":"m 347 0 l 347 521 l 174 521 l 0 694 l 0 1389 l 347 1389 l 347 868 l 694 868 l 694 1389 l 1042 1389 l 1042 694 l 868 521 l 694 521 l 694 0 l 347 0 m 0 1563 l 0 1910 l 347 1910 l 347 1563 l 0 1563 m 694 1563 l 694 1910 l 1042 1910 l 1042 1563 l 694 1563 z "},"Ā":{"ha":1215,"x_min":0,"x_max":1042,"o":"m 694 868 l 694 1042 l 347 1042 l 347 868 l 694 868 m 0 0 l 0 1389 l 1042 1389 l 1042 0 l 694 0 l 694 521 l 347 521 l 347 0 l 0 0 m 0 1563 l 0 1910 l 1042 1910 l 1042 1563 l 0 1563 z "},"ā":{"ha":1215,"x_min":0,"x_max":1042,"o":"m 694 868 l 694 1042 l 347 1042 l 347 868 l 694 868 m 0 0 l 0 1389 l 1042 1389 l 1042 0 l 694 0 l 694 521 l 347 521 l 347 0 l 0 0 m 0 1563 l 0 1910 l 1042 1910 l 1042 1563 l 0 1563 z "},"Ă":{"ha":1215,"x_min":0,"x_max":1042,"o":"m 694 868 l 694 1042 l 347 1042 l 347 868 l 694 868 m 0 0 l 0 1389 l 1042 1389 l 1042 0 l 694 0 l 694 521 l 347 521 l 347 0 l 0 0 m 347 1563 l 174 1736 l 174 1910 l 347 1910 l 521 1736 l 694 1910 l 868 1910 l 868 1736 l 694 1563 l 347 1563 z "},"ă":{"ha":1215,"x_min":0,"x_max":1042,"o":"m 694 868 l 694 1042 l 347 1042 l 347 868 l 694 868 m 0 0 l 0 1389 l 1042 1389 l 1042 0 l 694 0 l 694 521 l 347 521 l 347 0 l 0 0 m 347 1563 l 174 1736 l 174 1910 l 347 1910 l 521 1736 l 694 1910 l 868 1910 l 868 1736 l 694 1563 l 347 1563 z "},"Ą":{"ha":1215,"x_min":0,"x_max":1042,"o":"m 694 868 l 694 1042 l 347 1042 l 347 868 l 694 868 m 694 -521 l 521 -347 l 521 0 l 694 0 l 694 521 l 347 521 l 347 0 l 0 0 l 0 1389 l 1042 1389 l 1042 0 l 868 0 l 868 -174 l 1042 -174 l 1042 -521 l 694 -521 z "},"ą":{"ha":1215,"x_min":0,"x_max":1042,"o":"m 694 868 l 694 1042 l 347 1042 l 347 868 l 694 868 m 694 -521 l 521 -347 l 521 0 l 694 0 l 694 521 l 347 521 l 347 0 l 0 0 l 0 1389 l 1042 1389 l 1042 0 l 868 0 l 868 -174 l 1042 -174 l 1042 -521 l 694 -521 z "},"Ć":{"ha":1215,"x_min":0,"x_max":1042,"o":"m 0 0 l 0 1389 l 1042 1389 l 1042 868 l 694 868 l 694 1042 l 347 1042 l 347 347 l 694 347 l 694 521 l 1042 521 l 1042 0 l 0 0 m 347 1563 l 347 1736 l 521 1910 l 694 1910 l 694 1736 l 521 1563 l 347 1563 z "},"ć":{"ha":1215,"x_min":0,"x_max":1042,"o":"m 0 0 l 0 1389 l 1042 1389 l 1042 868 l 694 868 l 694 1042 l 347 1042 l 347 347 l 694 347 l 694 521 l 1042 521 l 1042 0 l 0 0 m 347 1563 l 347 1736 l 521 1910 l 694 1910 l 694 1736 l 521 1563 l 347 1563 z "},"Ĉ":{"ha":1215,"x_min":0,"x_max":1042,"o":"m 0 0 l 0 1389 l 1042 1389 l 1042 868 l 694 868 l 694 1042 l 347 1042 l 347 347 l 694 347 l 694 521 l 1042 521 l 1042 0 l 0 0 m 174 1563 l 174 1736 l 347 1910 l 694 1910 l 868 1736 l 868 1563 l 694 1563 l 521 1736 l 347 1563 l 174 1563 z "},"ĉ":{"ha":1215,"x_min":0,"x_max":1042,"o":"m 0 0 l 0 1389 l 1042 1389 l 1042 868 l 694 868 l 694 1042 l 347 1042 l 347 347 l 694 347 l 694 521 l 1042 521 l 1042 0 l 0 0 m 174 1563 l 174 1736 l 347 1910 l 694 1910 l 868 1736 l 868 1563 l 694 1563 l 521 1736 l 347 1563 l 174 1563 z "},"Ċ":{"ha":1215,"x_min":0,"x_max":1042,"o":"m 0 0 l 0 1389 l 1042 1389 l 1042 868 l 694 868 l 694 1042 l 347 1042 l 347 347 l 694 347 l 694 521 l 1042 521 l 1042 0 l 0 0 m 347 1563 l 347 1910 l 694 1910 l 694 1563 l 347 1563 z "},"ċ":{"ha":1215,"x_min":0,"x_max":1042,"o":"m 0 0 l 0 1389 l 1042 1389 l 1042 868 l 694 868 l 694 1042 l 347 1042 l 347 347 l 694 347 l 694 521 l 1042 521 l 1042 0 l 0 0 m 347 1563 l 347 1910 l 694 1910 l 694 1563 l 347 1563 z "},"Č":{"ha":1215,"x_min":0,"x_max":1042,"o":"m 0 0 l 0 1389 l 1042 1389 l 1042 868 l 694 868 l 694 1042 l 347 1042 l 347 347 l 694 347 l 694 521 l 1042 521 l 1042 0 l 0 0 m 347 1563 l 174 1736 l 174 1910 l 347 1910 l 521 1736 l 694 1910 l 868 1910 l 868 1736 l 694 1563 l 347 1563 z "},"č":{"ha":1215,"x_min":0,"x_max":1042,"o":"m 0 0 l 0 1389 l 1042 1389 l 1042 868 l 694 868 l 694 1042 l 347 1042 l 347 347 l 694 347 l 694 521 l 1042 521 l 1042 0 l 0 0 m 347 1563 l 174 1736 l 174 1910 l 347 1910 l 521 1736 l 694 1910 l 868 1910 l 868 1736 l 694 1563 l 347 1563 z "},"Ď":{"ha":1215,"x_min":0,"x_max":1042,"o":"m 694 347 l 694 1042 l 347 1042 l 347 347 l 694 347 m 0 0 l 0 1389 l 868 1389 l 1042 1215 l 1042 174 l 868 0 l 0 0 m 347 1563 l 174 1736 l 174 1910 l 347 1910 l 521 1736 l 694 1910 l 868 1910 l 868 1736 l 694 1563 l 347 1563 z "},"ď":{"ha":1215,"x_min":0,"x_max":1042,"o":"m 694 347 l 694 1042 l 347 1042 l 347 347 l 694 347 m 0 0 l 0 1389 l 868 1389 l 1042 1215 l 1042 174 l 868 0 l 0 0 m 347 1563 l 174 1736 l 174 1910 l 347 1910 l 521 1736 l 694 1910 l 868 1910 l 868 1736 l 694 1563 l 347 1563 z "},"Đ":{"ha":1389,"x_min":0,"x_max":1215,"o":"m 868 347 l 868 1042 l 521 1042 l 521 868 l 694 868 l 694 521 l 521 521 l 521 347 l 868 347 m 174 0 l 174 521 l 0 521 l 0 868 l 174 868 l 174 1389 l 1042 1389 l 1215 1215 l 1215 174 l 1042 0 l 174 0 z "},"đ":{"ha":1389,"x_min":0,"x_max":1215,"o":"m 868 347 l 868 1042 l 521 1042 l 521 868 l 694 868 l 694 521 l 521 521 l 521 347 l 868 347 m 174 0 l 174 521 l 0 521 l 0 868 l 174 868 l 174 1389 l 1042 1389 l 1215 1215 l 1215 174 l 1042 0 l 174 0 z "},"Ē":{"ha":1215,"x_min":0,"x_max":1042,"o":"m 0 0 l 0 1389 l 1042 1389 l 1042 1042 l 347 1042 l 347 868 l 868 868 l 868 521 l 347 521 l 347 347 l 1042 347 l 1042 0 l 0 0 m 0 1563 l 0 1910 l 1042 1910 l 1042 1563 l 0 1563 z "},"ē":{"ha":1215,"x_min":0,"x_max":1042,"o":"m 0 0 l 0 1389 l 1042 1389 l 1042 1042 l 347 1042 l 347 868 l 868 868 l 868 521 l 347 521 l 347 347 l 1042 347 l 1042 0 l 0 0 m 0 1563 l 0 1910 l 1042 1910 l 1042 1563 l 0 1563 z "},"Ĕ":{"ha":1215,"x_min":0,"x_max":1042,"o":"m 0 0 l 0 1389 l 1042 1389 l 1042 1042 l 347 1042 l 347 868 l 868 868 l 868 521 l 347 521 l 347 347 l 1042 347 l 1042 0 l 0 0 m 347 1563 l 174 1736 l 174 1910 l 347 1910 l 521 1736 l 694 1910 l 868 1910 l 868 1736 l 694 1563 l 347 1563 z "},"ĕ":{"ha":1215,"x_min":0,"x_max":1042,"o":"m 0 0 l 0 1389 l 1042 1389 l 1042 1042 l 347 1042 l 347 868 l 868 868 l 868 521 l 347 521 l 347 347 l 1042 347 l 1042 0 l 0 0 m 347 1563 l 174 1736 l 174 1910 l 347 1910 l 521 1736 l 694 1910 l 868 1910 l 868 1736 l 694 1563 l 347 1563 z "},"Ė":{"ha":1215,"x_min":0,"x_max":1042,"o":"m 0 0 l 0 1389 l 1042 1389 l 1042 1042 l 347 1042 l 347 868 l 868 868 l 868 521 l 347 521 l 347 347 l 1042 347 l 1042 0 l 0 0 m 347 1563 l 347 1910 l 694 1910 l 694 1563 l 347 1563 z "},"ė":{"ha":1215,"x_min":0,"x_max":1042,"o":"m 0 0 l 0 1389 l 1042 1389 l 1042 1042 l 347 1042 l 347 868 l 868 868 l 868 521 l 347 521 l 347 347 l 1042 347 l 1042 0 l 0 0 m 347 1563 l 347 1910 l 694 1910 l 694 1563 l 347 1563 z "},"Ę":{"ha":1215,"x_min":0,"x_max":1042,"o":"m 694 -521 l 521 -347 l 521 0 l 0 0 l 0 1389 l 1042 1389 l 1042 1042 l 347 1042 l 347 868 l 868 868 l 868 521 l 347 521 l 347 347 l 1042 347 l 1042 0 l 868 0 l 868 -174 l 1042 -174 l 1042 -521 l 694 -521 z "},"ę":{"ha":1215,"x_min":0,"x_max":1042,"o":"m 694 -521 l 521 -347 l 521 0 l 0 0 l 0 1389 l 1042 1389 l 1042 1042 l 347 1042 l 347 868 l 868 868 l 868 521 l 347 521 l 347 347 l 1042 347 l 1042 0 l 868 0 l 868 -174 l 1042 -174 l 1042 -521 l 694 -521 z "},"Ě":{"ha":1215,"x_min":0,"x_max":1042,"o":"m 0 0 l 0 1389 l 1042 1389 l 1042 1042 l 347 1042 l 347 868 l 868 868 l 868 521 l 347 521 l 347 347 l 1042 347 l 1042 0 l 0 0 m 347 1563 l 174 1736 l 174 1910 l 347 1910 l 521 1736 l 694 1910 l 868 1910 l 868 1736 l 694 1563 l 347 1563 z "},"ě":{"ha":1215,"x_min":0,"x_max":1042,"o":"m 0 0 l 0 1389 l 1042 1389 l 1042 1042 l 347 1042 l 347 868 l 868 868 l 868 521 l 347 521 l 347 347 l 1042 347 l 1042 0 l 0 0 m 347 1563 l 174 1736 l 174 1910 l 347 1910 l 521 1736 l 694 1910 l 868 1910 l 868 1736 l 694 1563 l 347 1563 z "},"Ĝ":{"ha":1215,"x_min":0,"x_max":1042,"o":"m 0 0 l 0 1389 l 1042 1389 l 1042 1042 l 347 1042 l 347 347 l 694 347 l 694 521 l 521 521 l 521 868 l 1042 868 l 1042 0 l 0 0 m 174 1563 l 174 1736 l 347 1910 l 694 1910 l 868 1736 l 868 1563 l 694 1563 l 521 1736 l 347 1563 l 174 1563 z "},"ĝ":{"ha":1215,"x_min":0,"x_max":1042,"o":"m 0 0 l 0 1389 l 1042 1389 l 1042 1042 l 347 1042 l 347 347 l 694 347 l 694 521 l 521 521 l 521 868 l 1042 868 l 1042 0 l 0 0 m 174 1563 l 174 1736 l 347 1910 l 694 1910 l 868 1736 l 868 1563 l 694 1563 l 521 1736 l 347 1563 l 174 1563 z "},"Ğ":{"ha":1215,"x_min":0,"x_max":1042,"o":"m 0 0 l 0 1389 l 1042 1389 l 1042 1042 l 347 1042 l 347 347 l 694 347 l 694 521 l 521 521 l 521 868 l 1042 868 l 1042 0 l 0 0 m 347 1563 l 174 1736 l 174 1910 l 347 1910 l 521 1736 l 694 1910 l 868 1910 l 868 1736 l 694 1563 l 347 1563 z "},"ğ":{"ha":1215,"x_min":0,"x_max":1042,"o":"m 0 0 l 0 1389 l 1042 1389 l 1042 1042 l 347 1042 l 347 347 l 694 347 l 694 521 l 521 521 l 521 868 l 1042 868 l 1042 0 l 0 0 m 347 1563 l 174 1736 l 174 1910 l 347 1910 l 521 1736 l 694 1910 l 868 1910 l 868 1736 l 694 1563 l 347 1563 z "},"Ġ":{"ha":1215,"x_min":0,"x_max":1042,"o":"m 0 0 l 0 1389 l 1042 1389 l 1042 1042 l 347 1042 l 347 347 l 694 347 l 694 521 l 521 521 l 521 868 l 1042 868 l 1042 0 l 0 0 m 347 1563 l 347 1910 l 694 1910 l 694 1563 l 347 1563 z "},"ġ":{"ha":1215,"x_min":0,"x_max":1042,"o":"m 0 0 l 0 1389 l 1042 1389 l 1042 1042 l 347 1042 l 347 347 l 694 347 l 694 521 l 521 521 l 521 868 l 1042 868 l 1042 0 l 0 0 m 347 1563 l 347 1910 l 694 1910 l 694 1563 l 347 1563 z "},"Ģ":{"ha":1215,"x_min":0,"x_max":1042,"o":"m 174 -521 l 174 -174 l 347 -174 l 347 0 l 0 0 l 0 1389 l 1042 1389 l 1042 1042 l 347 1042 l 347 347 l 694 347 l 694 521 l 521 521 l 521 868 l 1042 868 l 1042 0 l 694 0 l 694 -347 l 521 -521 l 174 -521 z "},"ģ":{"ha":1215,"x_min":0,"x_max":1042,"o":"m 174 -521 l 174 -174 l 347 -174 l 347 0 l 0 0 l 0 1389 l 1042 1389 l 1042 1042 l 347 1042 l 347 347 l 694 347 l 694 521 l 521 521 l 521 868 l 1042 868 l 1042 0 l 694 0 l 694 -347 l 521 -521 l 174 -521 z "},"Ĥ":{"ha":1215,"x_min":0,"x_max":1042,"o":"m 0 0 l 0 1389 l 347 1389 l 347 868 l 694 868 l 694 1389 l 1042 1389 l 1042 0 l 694 0 l 694 521 l 347 521 l 347 0 l 0 0 m 174 1563 l 174 1736 l 347 1910 l 694 1910 l 868 1736 l 868 1563 l 694 1563 l 521 1736 l 347 1563 l 174 1563 z "},"ĥ":{"ha":1215,"x_min":0,"x_max":1042,"o":"m 0 0 l 0 1389 l 347 1389 l 347 868 l 694 868 l 694 1389 l 1042 1389 l 1042 0 l 694 0 l 694 521 l 347 521 l 347 0 l 0 0 m 174 1563 l 174 1736 l 347 1910 l 694 1910 l 868 1736 l 868 1563 l 694 1563 l 521 1736 l 347 1563 l 174 1563 z "},"Ħ":{"ha":1563,"x_min":0,"x_max":1389,"o":"m 868 868 l 868 1042 l 521 1042 l 521 868 l 868 868 m 174 0 l 174 1042 l 0 1042 l 0 1389 l 1389 1389 l 1389 1042 l 1215 1042 l 1215 0 l 868 0 l 868 521 l 521 521 l 521 0 l 174 0 z "},"ħ":{"ha":1563,"x_min":0,"x_max":1389,"o":"m 868 868 l 868 1042 l 521 1042 l 521 868 l 868 868 m 174 0 l 174 1042 l 0 1042 l 0 1389 l 1389 1389 l 1389 1042 l 1215 1042 l 1215 0 l 868 0 l 868 521 l 521 521 l 521 0 l 174 0 z "},"Ĩ":{"ha":868,"x_min":-347,"x_max":694,"o":"m 0 0 l 0 1389 l 347 1389 l 347 0 l 0 0 m -347 1563 l -347 1736 l -174 1910 l 174 1910 l 174 1909 l 260 1823 l 347 1910 l 694 1910 l 694 1736 l 521 1563 l 174 1563 l 174 1563 l 87 1649 l 0 1563 l -347 1563 z "},"ĩ":{"ha":868,"x_min":-347,"x_max":694,"o":"m 0 0 l 0 1389 l 347 1389 l 347 0 l 0 0 m -347 1563 l -347 1736 l -174 1910 l 174 1910 l 174 1909 l 260 1823 l 347 1910 l 694 1910 l 694 1736 l 521 1563 l 174 1563 l 174 1563 l 87 1649 l 0 1563 l -347 1563 z "},"Ī":{"ha":694,"x_min":-174,"x_max":521,"o":"m 0 0 l 0 1389 l 347 1389 l 347 0 l 0 0 m -174 1563 l -174 1910 l 521 1910 l 521 1563 l -174 1563 z "},"ī":{"ha":694,"x_min":-174,"x_max":521,"o":"m 0 0 l 0 1389 l 347 1389 l 347 0 l 0 0 m -174 1563 l -174 1910 l 521 1910 l 521 1563 l -174 1563 z "},"Ĭ":{"ha":694,"x_min":-174,"x_max":521,"o":"m 0 0 l 0 1389 l 347 1389 l 347 0 l 0 0 m 0 1563 l -174 1736 l -174 1910 l 0 1910 l 174 1736 l 347 1910 l 521 1910 l 521 1736 l 347 1563 l 0 1563 z "},"ĭ":{"ha":694,"x_min":-174,"x_max":521,"o":"m 0 0 l 0 1389 l 347 1389 l 347 0 l 0 0 m 0 1563 l -174 1736 l -174 1910 l 0 1910 l 174 1736 l 347 1910 l 521 1910 l 521 1736 l 347 1563 l 0 1563 z "},"Į":{"ha":694,"x_min":0,"x_max":521,"o":"m 174 -521 l 0 -347 l 0 1389 l 347 1389 l 347 -174 l 521 -174 l 521 -521 l 174 -521 z "},"į":{"ha":694,"x_min":0,"x_max":521,"o":"m 174 -521 l 0 -347 l 0 1389 l 347 1389 l 347 -174 l 521 -174 l 521 -521 l 174 -521 z "},"İ":{"ha":521,"x_min":0,"x_max":347,"o":"m 0 0 l 0 1389 l 347 1389 l 347 0 l 0 0 m 0 1563 l 0 1910 l 347 1910 l 347 1563 l 0 1563 z "},"ı":{"ha":521,"x_min":0,"x_max":347,"o":"m 0 0 l 0 868 l 347 868 l 347 0 l 0 0 z "},"Ĳ":{"ha":1215,"x_min":0,"x_max":1042,"o":"m 0 0 l 0 1389 l 347 1389 l 347 0 l 0 0 m 521 0 l 521 347 l 694 347 l 694 1389 l 1042 1389 l 1042 0 l 521 0 z "},"ĳ":{"ha":1215,"x_min":0,"x_max":1042,"o":"m 0 0 l 0 1389 l 347 1389 l 347 0 l 0 0 m 521 0 l 521 347 l 694 347 l 694 1389 l 1042 1389 l 1042 0 l 521 0 z "},"Ĵ":{"ha":1215,"x_min":0,"x_max":1042,"o":"m 0 0 l 0 521 l 347 521 l 347 347 l 694 347 l 694 1389 l 1042 1389 l 1042 0 l 0 0 m 174 1563 l 174 1736 l 347 1910 l 694 1910 l 868 1736 l 868 1563 l 694 1563 l 521 1736 l 347 1563 l 174 1563 z "},"ĵ":{"ha":1215,"x_min":0,"x_max":1042,"o":"m 0 0 l 0 521 l 347 521 l 347 347 l 694 347 l 694 1389 l 1042 1389 l 1042 0 l 0 0 m 174 1563 l 174 1736 l 347 1910 l 694 1910 l 868 1736 l 868 1563 l 694 1563 l 521 1736 l 347 1563 l 174 1563 z "},"Ķ":{"ha":1215,"x_min":0,"x_max":1042,"o":"m 174 -521 l 174 -174 l 347 -174 l 347 0 l 694 0 l 694 -347 l 521 -521 l 174 -521 m 0 0 l 0 1389 l 347 1389 l 347 868 l 694 868 l 694 1389 l 1042 1389 l 1042 868 l 868 694 l 1042 521 l 1042 0 l 694 0 l 694 521 l 347 521 l 347 0 l 0 0 z "},"ķ":{"ha":1215,"x_min":0,"x_max":1042,"o":"m 174 -521 l 174 -174 l 347 -174 l 347 0 l 694 0 l 694 -347 l 521 -521 l 174 -521 m 0 0 l 0 1389 l 347 1389 l 347 868 l 694 868 l 694 1389 l 1042 1389 l 1042 868 l 868 694 l 1042 521 l 1042 0 l 694 0 l 694 521 l 347 521 l 347 0 l 0 0 z "},"ĸ":{"ha":1215,"x_min":0,"x_max":1042,"o":"m 0 0 l 0 1042 l 347 1042 l 347 694 l 694 694 l 694 1042 l 1042 1042 l 1042 694 l 868 521 l 1042 347 l 1042 0 l 694 0 l 694 347 l 347 347 l 347 0 l 0 0 z "},"Ĺ":{"ha":1215,"x_min":0,"x_max":1042,"o":"m 0 0 l 0 1389 l 347 1389 l 347 347 l 1042 347 l 1042 0 l 0 0 m 0 1563 l 0 1736 l 174 1910 l 347 1910 l 347 1736 l 174 1563 l 0 1563 z "},"ĺ":{"ha":1215,"x_min":0,"x_max":1042,"o":"m 0 0 l 0 1389 l 347 1389 l 347 347 l 1042 347 l 1042 0 l 0 0 m 0 1563 l 0 1736 l 174 1910 l 347 1910 l 347 1736 l 174 1563 l 0 1563 z "},"Ļ":{"ha":1215,"x_min":0,"x_max":1042,"o":"m 174 -521 l 174 -174 l 347 -174 l 347 0 l 0 0 l 0 1389 l 347 1389 l 347 347 l 1042 347 l 1042 0 l 694 0 l 694 -347 l 521 -521 l 174 -521 z "},"ļ":{"ha":1215,"x_min":0,"x_max":1042,"o":"m 174 -521 l 174 -174 l 347 -174 l 347 0 l 0 0 l 0 1389 l 347 1389 l 347 347 l 1042 347 l 1042 0 l 694 0 l 694 -347 l 521 -521 l 174 -521 z "},"Ľ":{"ha":1215,"x_min":0,"x_max":1042,"o":"m 0 0 l 0 1389 l 347 1389 l 347 347 l 1042 347 l 1042 0 l 0 0 m 521 868 l 521 1215 l 694 1215 l 694 1389 l 1042 1389 l 1042 1042 l 868 868 l 521 868 z "},"ľ":{"ha":1215,"x_min":0,"x_max":1042,"o":"m 0 0 l 0 1389 l 347 1389 l 347 347 l 1042 347 l 1042 0 l 0 0 m 521 868 l 521 1215 l 694 1215 l 694 1389 l 1042 1389 l 1042 1042 l 868 868 l 521 868 z "},"Ŀ":{"ha":1215,"x_min":0,"x_max":1042,"o":"m 694 694 l 694 1042 l 1042 1042 l 1042 694 l 694 694 m 0 0 l 0 1389 l 347 1389 l 347 347 l 1042 347 l 1042 0 l 0 0 z "},"ŀ":{"ha":1215,"x_min":0,"x_max":1042,"o":"m 694 694 l 694 1042 l 1042 1042 l 1042 694 l 694 694 m 0 0 l 0 1389 l 347 1389 l 347 347 l 1042 347 l 1042 0 l 0 0 z "},"Ł":{"ha":1215,"x_min":-174,"x_max":1042,"o":"m 0 0 l 0 521 l -174 521 l -174 868 l 0 868 l 0 1389 l 347 1389 l 347 1042 l 521 1042 l 521 694 l 347 694 l 347 347 l 1042 347 l 1042 0 l 0 0 z "},"ł":{"ha":1215,"x_min":-174,"x_max":1042,"o":"m 0 0 l 0 521 l -174 521 l -174 868 l 0 868 l 0 1389 l 347 1389 l 347 1042 l 521 1042 l 521 694 l 347 694 l 347 347 l 1042 347 l 1042 0 l 0 0 z "},"Ń":{"ha":1215,"x_min":0,"x_max":1042,"o":"m 0 0 l 0 1389 l 1042 1389 l 1042 0 l 694 0 l 694 1042 l 347 1042 l 347 0 l 0 0 m 347 1563 l 347 1736 l 521 1910 l 694 1910 l 694 1736 l 521 1563 l 347 1563 z "},"ń":{"ha":1215,"x_min":0,"x_max":1042,"o":"m 0 0 l 0 1389 l 1042 1389 l 1042 0 l 694 0 l 694 1042 l 347 1042 l 347 0 l 0 0 m 347 1563 l 347 1736 l 521 1910 l 694 1910 l 694 1736 l 521 1563 l 347 1563 z "},"Ņ":{"ha":1215,"x_min":0,"x_max":1042,"o":"m 174 -521 l 174 -174 l 347 -174 l 347 0 l 694 0 l 694 -347 l 521 -521 l 174 -521 m 0 0 l 0 1389 l 1042 1389 l 1042 0 l 694 0 l 694 1042 l 347 1042 l 347 0 l 0 0 z "},"ņ":{"ha":1215,"x_min":0,"x_max":1042,"o":"m 174 -521 l 174 -174 l 347 -174 l 347 0 l 694 0 l 694 -347 l 521 -521 l 174 -521 m 0 0 l 0 1389 l 1042 1389 l 1042 0 l 694 0 l 694 1042 l 347 1042 l 347 0 l 0 0 z "},"Ň":{"ha":1215,"x_min":0,"x_max":1042,"o":"m 0 0 l 0 1389 l 1042 1389 l 1042 0 l 694 0 l 694 1042 l 347 1042 l 347 0 l 0 0 m 347 1563 l 174 1736 l 174 1910 l 347 1910 l 521 1736 l 694 1910 l 868 1910 l 868 1736 l 694 1563 l 347 1563 z "},"ň":{"ha":1215,"x_min":0,"x_max":1042,"o":"m 0 0 l 0 1389 l 1042 1389 l 1042 0 l 694 0 l 694 1042 l 347 1042 l 347 0 l 0 0 m 347 1563 l 174 1736 l 174 1910 l 347 1910 l 521 1736 l 694 1910 l 868 1910 l 868 1736 l 694 1563 l 347 1563 z "},"ŉ":{"ha":1736,"x_min":0,"x_max":1563,"o":"m 521 0 l 521 1389 l 1563 1389 l 1563 0 l 1215 0 l 1215 1042 l 868 1042 l 868 0 l 521 0 m 0 1215 l 0 1563 l 174 1563 l 174 1736 l 521 1736 l 521 1389 l 347 1215 l 0 1215 z "},"Ŋ":{"ha":1215,"x_min":0,"x_max":1042,"o":"m 521 -521 l 521 -174 l 694 -174 l 694 1042 l 347 1042 l 347 0 l 0 0 l 0 1389 l 1042 1389 l 1042 -347 l 868 -521 l 521 -521 z "},"ŋ":{"ha":1215,"x_min":0,"x_max":1042,"o":"m 521 -521 l 521 -174 l 694 -174 l 694 1042 l 347 1042 l 347 0 l 0 0 l 0 1389 l 1042 1389 l 1042 -347 l 868 -521 l 521 -521 z "},"Ō":{"ha":1215,"x_min":0,"x_max":1042,"o":"m 694 347 l 694 1042 l 347 1042 l 347 347 l 694 347 m 0 0 l 0 1389 l 1042 1389 l 1042 0 l 0 0 m 0 1563 l 0 1910 l 1042 1910 l 1042 1563 l 0 1563 z "},"ō":{"ha":1215,"x_min":0,"x_max":1042,"o":"m 694 347 l 694 1042 l 347 1042 l 347 347 l 694 347 m 0 0 l 0 1389 l 1042 1389 l 1042 0 l 0 0 m 0 1563 l 0 1910 l 1042 1910 l 1042 1563 l 0 1563 z "},"Ŏ":{"ha":1215,"x_min":0,"x_max":1042,"o":"m 694 347 l 694 1042 l 347 1042 l 347 347 l 694 347 m 0 0 l 0 1389 l 1042 1389 l 1042 0 l 0 0 m 347 1563 l 174 1736 l 174 1910 l 347 1910 l 521 1736 l 694 1910 l 868 1910 l 868 1736 l 694 1563 l 347 1563 z "},"ŏ":{"ha":1215,"x_min":0,"x_max":1042,"o":"m 694 347 l 694 1042 l 347 1042 l 347 347 l 694 347 m 0 0 l 0 1389 l 1042 1389 l 1042 0 l 0 0 m 347 1563 l 174 1736 l 174 1910 l 347 1910 l 521 1736 l 694 1910 l 868 1910 l 868 1736 l 694 1563 l 347 1563 z "},"Ő":{"ha":1215,"x_min":0,"x_max":1042,"o":"m 694 347 l 694 1042 l 347 1042 l 347 347 l 694 347 m 0 0 l 0 1389 l 1042 1389 l 1042 0 l 0 0 m 0 1563 l 0 1736 l 174 1910 l 347 1910 l 347 1736 l 174 1563 l 0 1563 m 694 1563 l 694 1736 l 868 1910 l 1042 1910 l 1042 1736 l 868 1563 l 694 1563 z "},"ő":{"ha":1215,"x_min":0,"x_max":1042,"o":"m 694 347 l 694 1042 l 347 1042 l 347 347 l 694 347 m 0 0 l 0 1389 l 1042 1389 l 1042 0 l 0 0 m 0 1563 l 0 1736 l 174 1910 l 347 1910 l 347 1736 l 174 1563 l 0 1563 m 694 1563 l 694 1736 l 868 1910 l 1042 1910 l 1042 1736 l 868 1563 l 694 1563 z "},"Œ":{"ha":1910,"x_min":0,"x_max":1736,"o":"m 694 347 l 694 1042 l 347 1042 l 347 347 l 694 347 m 0 0 l 0 1389 l 1736 1389 l 1736 1042 l 1042 1042 l 1042 868 l 1563 868 l 1563 521 l 1042 521 l 1042 347 l 1736 347 l 1736 0 l 0 0 z "},"œ":{"ha":1910,"x_min":0,"x_max":1736,"o":"m 694 347 l 694 1042 l 347 1042 l 347 347 l 694 347 m 0 0 l 0 1389 l 1736 1389 l 1736 1042 l 1042 1042 l 1042 868 l 1563 868 l 1563 521 l 1042 521 l 1042 347 l 1736 347 l 1736 0 l 0 0 z "},"Ŕ":{"ha":1215,"x_min":0,"x_max":1042,"o":"m 694 868 l 694 1042 l 347 1042 l 347 868 l 694 868 m 0 0 l 0 1389 l 1042 1389 l 1042 694 l 1041 694 l 955 608 l 1042 521 l 1042 0 l 694 0 l 694 521 l 347 521 l 347 0 l 0 0 m 347 1563 l 347 1736 l 521 1910 l 694 1910 l 694 1736 l 521 1563 l 347 1563 z "},"ŕ":{"ha":1215,"x_min":0,"x_max":1042,"o":"m 694 868 l 694 1042 l 347 1042 l 347 868 l 694 868 m 0 0 l 0 1389 l 1042 1389 l 1042 694 l 1041 694 l 955 608 l 1042 521 l 1042 0 l 694 0 l 694 521 l 347 521 l 347 0 l 0 0 m 347 1563 l 347 1736 l 521 1910 l 694 1910 l 694 1736 l 521 1563 l 347 1563 z "},"Ŗ":{"ha":1215,"x_min":0,"x_max":1042,"o":"m 174 -521 l 174 -174 l 347 -174 l 347 0 l 694 0 l 694 -347 l 521 -521 l 174 -521 m 694 868 l 694 1042 l 347 1042 l 347 868 l 694 868 m 0 0 l 0 1389 l 1042 1389 l 1042 694 l 1041 694 l 955 608 l 1042 521 l 1042 0 l 694 0 l 694 521 l 347 521 l 347 0 l 0 0 z "},"ŗ":{"ha":1215,"x_min":0,"x_max":1042,"o":"m 174 -521 l 174 -174 l 347 -174 l 347 0 l 694 0 l 694 -347 l 521 -521 l 174 -521 m 694 868 l 694 1042 l 347 1042 l 347 868 l 694 868 m 0 0 l 0 1389 l 1042 1389 l 1042 694 l 1041 694 l 955 608 l 1042 521 l 1042 0 l 694 0 l 694 521 l 347 521 l 347 0 l 0 0 z "},"Ř":{"ha":1215,"x_min":0,"x_max":1042,"o":"m 694 868 l 694 1042 l 347 1042 l 347 868 l 694 868 m 0 0 l 0 1389 l 1042 1389 l 1042 694 l 1041 694 l 955 608 l 1042 521 l 1042 0 l 694 0 l 694 521 l 347 521 l 347 0 l 0 0 m 347 1563 l 174 1736 l 174 1910 l 347 1910 l 521 1736 l 694 1910 l 868 1910 l 868 1736 l 694 1563 l 347 1563 z "},"ř":{"ha":1215,"x_min":0,"x_max":1042,"o":"m 694 868 l 694 1042 l 347 1042 l 347 868 l 694 868 m 0 0 l 0 1389 l 1042 1389 l 1042 694 l 1041 694 l 955 608 l 1042 521 l 1042 0 l 694 0 l 694 521 l 347 521 l 347 0 l 0 0 m 347 1563 l 174 1736 l 174 1910 l 347 1910 l 521 1736 l 694 1910 l 868 1910 l 868 1736 l 694 1563 l 347 1563 z "},"Ś":{"ha":1215,"x_min":0,"x_max":1042,"o":"m 0 0 l 0 347 l 694 347 l 694 521 l 0 521 l 0 1389 l 1042 1389 l 1042 1042 l 347 1042 l 347 868 l 1042 868 l 1042 0 l 0 0 m 347 1563 l 347 1736 l 521 1910 l 694 1910 l 694 1736 l 521 1563 l 347 1563 z "},"ś":{"ha":1215,"x_min":0,"x_max":1042,"o":"m 0 0 l 0 347 l 694 347 l 694 521 l 0 521 l 0 1389 l 1042 1389 l 1042 1042 l 347 1042 l 347 868 l 1042 868 l 1042 0 l 0 0 m 347 1563 l 347 1736 l 521 1910 l 694 1910 l 694 1736 l 521 1563 l 347 1563 z "},"Ŝ":{"ha":1215,"x_min":0,"x_max":1042,"o":"m 0 0 l 0 347 l 694 347 l 694 521 l 0 521 l 0 1389 l 1042 1389 l 1042 1042 l 347 1042 l 347 868 l 1042 868 l 1042 0 l 0 0 m 174 1563 l 174 1736 l 347 1910 l 694 1910 l 868 1736 l 868 1563 l 694 1563 l 521 1736 l 347 1563 l 174 1563 z "},"ŝ":{"ha":1215,"x_min":0,"x_max":1042,"o":"m 0 0 l 0 347 l 694 347 l 694 521 l 0 521 l 0 1389 l 1042 1389 l 1042 1042 l 347 1042 l 347 868 l 1042 868 l 1042 0 l 0 0 m 174 1563 l 174 1736 l 347 1910 l 694 1910 l 868 1736 l 868 1563 l 694 1563 l 521 1736 l 347 1563 l 174 1563 z "},"Ş":{"ha":1215,"x_min":0,"x_max":1042,"o":"m 174 -521 l 174 -174 l 347 -174 l 347 0 l 0 0 l 0 347 l 694 347 l 694 521 l 0 521 l 0 1389 l 1042 1389 l 1042 1042 l 347 1042 l 347 868 l 1042 868 l 1042 0 l 694 0 l 694 -347 l 521 -521 l 174 -521 z "},"ş":{"ha":1215,"x_min":0,"x_max":1042,"o":"m 174 -521 l 174 -174 l 347 -174 l 347 0 l 0 0 l 0 347 l 694 347 l 694 521 l 0 521 l 0 1389 l 1042 1389 l 1042 1042 l 347 1042 l 347 868 l 1042 868 l 1042 0 l 694 0 l 694 -347 l 521 -521 l 174 -521 z "},"Š":{"ha":1215,"x_min":0,"x_max":1042,"o":"m 0 0 l 0 347 l 694 347 l 694 521 l 0 521 l 0 1389 l 1042 1389 l 1042 1042 l 347 1042 l 347 868 l 1042 868 l 1042 0 l 0 0 m 347 1563 l 174 1736 l 174 1910 l 347 1910 l 521 1736 l 694 1910 l 868 1910 l 868 1736 l 694 1563 l 347 1563 z "},"š":{"ha":1215,"x_min":0,"x_max":1042,"o":"m 0 0 l 0 347 l 694 347 l 694 521 l 0 521 l 0 1389 l 1042 1389 l 1042 1042 l 347 1042 l 347 868 l 1042 868 l 1042 0 l 0 0 m 347 1563 l 174 1736 l 174 1910 l 347 1910 l 521 1736 l 694 1910 l 868 1910 l 868 1736 l 694 1563 l 347 1563 z "},"Ţ":{"ha":1215,"x_min":0,"x_max":1042,"o":"m 174 -521 l 174 -174 l 347 -174 l 347 1042 l 0 1042 l 0 1389 l 1042 1389 l 1042 1042 l 694 1042 l 694 -347 l 521 -521 l 174 -521 z "},"ţ":{"ha":1215,"x_min":0,"x_max":1042,"o":"m 174 -521 l 174 -174 l 347 -174 l 347 1042 l 0 1042 l 0 1389 l 1042 1389 l 1042 1042 l 694 1042 l 694 -347 l 521 -521 l 174 -521 z "},"Ť":{"ha":1215,"x_min":0,"x_max":1042,"o":"m 347 0 l 347 1042 l 0 1042 l 0 1389 l 1042 1389 l 1042 1042 l 694 1042 l 694 0 l 347 0 m 347 1563 l 174 1736 l 174 1910 l 347 1910 l 521 1736 l 694 1910 l 868 1910 l 868 1736 l 694 1563 l 347 1563 z "},"ť":{"ha":1215,"x_min":0,"x_max":1042,"o":"m 347 0 l 347 1042 l 0 1042 l 0 1389 l 1042 1389 l 1042 1042 l 694 1042 l 694 0 l 347 0 m 347 1563 l 174 1736 l 174 1910 l 347 1910 l 521 1736 l 694 1910 l 868 1910 l 868 1736 l 694 1563 l 347 1563 z "},"Ŧ":{"ha":1215,"x_min":0,"x_max":1042,"o":"m 347 0 l 347 521 l 174 521 l 174 868 l 347 868 l 347 1042 l 0 1042 l 0 1389 l 1042 1389 l 1042 1042 l 694 1042 l 694 868 l 868 868 l 868 521 l 694 521 l 694 0 l 347 0 z "},"ŧ":{"ha":1215,"x_min":0,"x_max":1042,"o":"m 347 0 l 347 521 l 174 521 l 174 868 l 347 868 l 347 1042 l 0 1042 l 0 1389 l 1042 1389 l 1042 1042 l 694 1042 l 694 868 l 868 868 l 868 521 l 694 521 l 694 0 l 347 0 z "},"Ũ":{"ha":1215,"x_min":0,"x_max":1042,"o":"m 0 0 l 0 1389 l 347 1389 l 347 347 l 694 347 l 694 1389 l 1042 1389 l 1042 0 l 0 0 m 0 1563 l 0 1736 l 174 1910 l 521 1910 l 521 1909 l 608 1823 l 694 1910 l 1042 1910 l 1042 1736 l 868 1563 l 521 1563 l 521 1563 l 434 1649 l 347 1563 l 0 1563 z "},"ũ":{"ha":1215,"x_min":0,"x_max":1042,"o":"m 0 0 l 0 1389 l 347 1389 l 347 347 l 694 347 l 694 1389 l 1042 1389 l 1042 0 l 0 0 m 0 1563 l 0 1736 l 174 1910 l 521 1910 l 521 1909 l 608 1823 l 694 1910 l 1042 1910 l 1042 1736 l 868 1563 l 521 1563 l 521 1563 l 434 1649 l 347 1563 l 0 1563 z "},"Ū":{"ha":1215,"x_min":0,"x_max":1042,"o":"m 0 0 l 0 1389 l 347 1389 l 347 347 l 694 347 l 694 1389 l 1042 1389 l 1042 0 l 0 0 m 0 1563 l 0 1910 l 1042 1910 l 1042 1563 l 0 1563 z "},"ū":{"ha":1215,"x_min":0,"x_max":1042,"o":"m 0 0 l 0 1389 l 347 1389 l 347 347 l 694 347 l 694 1389 l 1042 1389 l 1042 0 l 0 0 m 0 1563 l 0 1910 l 1042 1910 l 1042 1563 l 0 1563 z "},"Ŭ":{"ha":1215,"x_min":0,"x_max":1042,"o":"m 0 0 l 0 1389 l 347 1389 l 347 347 l 694 347 l 694 1389 l 1042 1389 l 1042 0 l 0 0 m 347 1563 l 174 1736 l 174 1910 l 347 1910 l 521 1736 l 694 1910 l 868 1910 l 868 1736 l 694 1563 l 347 1563 z "},"ŭ":{"ha":1215,"x_min":0,"x_max":1042,"o":"m 0 0 l 0 1389 l 347 1389 l 347 347 l 694 347 l 694 1389 l 1042 1389 l 1042 0 l 0 0 m 347 1563 l 174 1736 l 174 1910 l 347 1910 l 521 1736 l 694 1910 l 868 1910 l 868 1736 l 694 1563 l 347 1563 z "},"Ů":{"ha":1215,"x_min":0,"x_max":1042,"o":"m 694 347 l 694 1042 l 347 1042 l 347 347 l 694 347 m 694 1389 l 694 1563 l 347 1563 l 347 1389 l 694 1389 m 0 0 l 0 1910 l 1042 1910 l 1042 0 l 0 0 z "},"ů":{"ha":1215,"x_min":0,"x_max":1042,"o":"m 694 347 l 694 1042 l 347 1042 l 347 347 l 694 347 m 694 1389 l 694 1563 l 347 1563 l 347 1389 l 694 1389 m 0 0 l 0 1910 l 1042 1910 l 1042 0 l 0 0 z "},"Ű":{"ha":1215,"x_min":0,"x_max":1042,"o":"m 0 0 l 0 1389 l 347 1389 l 347 347 l 694 347 l 694 1389 l 1042 1389 l 1042 0 l 0 0 m 0 1563 l 0 1736 l 174 1910 l 347 1910 l 347 1736 l 174 1563 l 0 1563 m 694 1563 l 694 1736 l 868 1910 l 1042 1910 l 1042 1736 l 868 1563 l 694 1563 z "},"ű":{"ha":1215,"x_min":0,"x_max":1042,"o":"m 0 0 l 0 1389 l 347 1389 l 347 347 l 694 347 l 694 1389 l 1042 1389 l 1042 0 l 0 0 m 0 1563 l 0 1736 l 174 1910 l 347 1910 l 347 1736 l 174 1563 l 0 1563 m 694 1563 l 694 1736 l 868 1910 l 1042 1910 l 1042 1736 l 868 1563 l 694 1563 z "},"Ų":{"ha":1215,"x_min":0,"x_max":1042,"o":"m 521 -521 l 347 -347 l 347 0 l 0 0 l 0 1389 l 347 1389 l 347 347 l 694 347 l 694 1389 l 1042 1389 l 1042 0 l 694 0 l 694 -174 l 868 -174 l 868 -521 l 521 -521 z "},"ų":{"ha":1215,"x_min":0,"x_max":1042,"o":"m 521 -521 l 347 -347 l 347 0 l 0 0 l 0 1389 l 347 1389 l 347 347 l 694 347 l 694 1389 l 1042 1389 l 1042 0 l 694 0 l 694 -174 l 868 -174 l 868 -521 l 521 -521 z "},"Ŵ":{"ha":1563,"x_min":0,"x_max":1389,"o":"m 0 0 l 0 1389 l 347 1389 l 347 347 l 521 347 l 521 1042 l 868 1042 l 868 347 l 1042 347 l 1042 1389 l 1389 1389 l 1389 0 l 0 0 m 347 1563 l 347 1736 l 521 1910 l 868 1910 l 1042 1736 l 1042 1563 l 868 1563 l 694 1736 l 521 1563 l 347 1563 z "},"ŵ":{"ha":1563,"x_min":0,"x_max":1389,"o":"m 0 0 l 0 1389 l 347 1389 l 347 347 l 521 347 l 521 1042 l 868 1042 l 868 347 l 1042 347 l 1042 1389 l 1389 1389 l 1389 0 l 0 0 m 347 1563 l 347 1736 l 521 1910 l 868 1910 l 1042 1736 l 1042 1563 l 868 1563 l 694 1736 l 521 1563 l 347 1563 z "},"Ŷ":{"ha":1215,"x_min":0,"x_max":1042,"o":"m 347 0 l 347 521 l 174 521 l 0 694 l 0 1389 l 347 1389 l 347 868 l 694 868 l 694 1389 l 1042 1389 l 1042 694 l 868 521 l 694 521 l 694 0 l 347 0 m 174 1563 l 174 1736 l 347 1910 l 694 1910 l 868 1736 l 868 1563 l 694 1563 l 521 1736 l 347 1563 l 174 1563 z "},"ŷ":{"ha":1215,"x_min":0,"x_max":1042,"o":"m 347 0 l 347 521 l 174 521 l 0 694 l 0 1389 l 347 1389 l 347 868 l 694 868 l 694 1389 l 1042 1389 l 1042 694 l 868 521 l 694 521 l 694 0 l 347 0 m 174 1563 l 174 1736 l 347 1910 l 694 1910 l 868 1736 l 868 1563 l 694 1563 l 521 1736 l 347 1563 l 174 1563 z "},"Ÿ":{"ha":1215,"x_min":0,"x_max":1042,"o":"m 347 0 l 347 521 l 174 521 l 0 694 l 0 1389 l 347 1389 l 347 868 l 694 868 l 694 1389 l 1042 1389 l 1042 694 l 868 521 l 694 521 l 694 0 l 347 0 m 0 1563 l 0 1910 l 347 1910 l 347 1563 l 0 1563 m 694 1563 l 694 1910 l 1042 1910 l 1042 1563 l 694 1563 z "},"Ź":{"ha":1215,"x_min":0,"x_max":1042,"o":"m 0 0 l 0 868 l 694 868 l 694 1042 l 0 1042 l 0 1389 l 1042 1389 l 1042 521 l 347 521 l 347 347 l 1042 347 l 1042 0 l 0 0 m 347 1563 l 347 1736 l 521 1910 l 694 1910 l 694 1736 l 521 1563 l 347 1563 z "},"ź":{"ha":1215,"x_min":0,"x_max":1042,"o":"m 0 0 l 0 868 l 694 868 l 694 1042 l 0 1042 l 0 1389 l 1042 1389 l 1042 521 l 347 521 l 347 347 l 1042 347 l 1042 0 l 0 0 m 347 1563 l 347 1736 l 521 1910 l 694 1910 l 694 1736 l 521 1563 l 347 1563 z "},"Ż":{"ha":1215,"x_min":0,"x_max":1042,"o":"m 0 0 l 0 868 l 694 868 l 694 1042 l 0 1042 l 0 1389 l 1042 1389 l 1042 521 l 347 521 l 347 347 l 1042 347 l 1042 0 l 0 0 m 347 1563 l 347 1910 l 694 1910 l 694 1563 l 347 1563 z "},"ż":{"ha":1215,"x_min":0,"x_max":1042,"o":"m 0 0 l 0 868 l 694 868 l 694 1042 l 0 1042 l 0 1389 l 1042 1389 l 1042 521 l 347 521 l 347 347 l 1042 347 l 1042 0 l 0 0 m 347 1563 l 347 1910 l 694 1910 l 694 1563 l 347 1563 z "},"Ž":{"ha":1215,"x_min":0,"x_max":1042,"o":"m 0 0 l 0 868 l 694 868 l 694 1042 l 0 1042 l 0 1389 l 1042 1389 l 1042 521 l 347 521 l 347 347 l 1042 347 l 1042 0 l 0 0 m 347 1563 l 174 1736 l 174 1910 l 347 1910 l 521 1736 l 694 1910 l 868 1910 l 868 1736 l 694 1563 l 347 1563 z "},"ž":{"ha":1215,"x_min":0,"x_max":1042,"o":"m 0 0 l 0 868 l 694 868 l 694 1042 l 0 1042 l 0 1389 l 1042 1389 l 1042 521 l 347 521 l 347 347 l 1042 347 l 1042 0 l 0 0 m 347 1563 l 174 1736 l 174 1910 l 347 1910 l 521 1736 l 694 1910 l 868 1910 l 868 1736 l 694 1563 l 347 1563 z "},"ſ":{"ha":1215,"x_min":0,"x_max":1042,"o":"m 174 0 l 174 521 l 0 521 l 0 868 l 174 868 l 174 1215 l 347 1389 l 868 1389 l 1042 1215 l 1042 868 l 695 868 l 694 1042 l 521 1042 l 521 868 l 694 868 l 694 521 l 521 521 l 521 0 l 174 0 z "},"ẞ":{"ha":1215,"x_min":0,"x_max":1042,"o":"m 694 347 l 694 521 l 347 521 l 347 347 l 694 347 m 694 868 l 694 1042 l 347 1042 l 347 868 l 694 868 m 0 0 l 0 1389 l 1042 1389 l 1042 868 l 868 694 l 1042 521 l 1042 0 l 0 0 z "},"—":{"ha":1910,"x_min":0,"x_max":1736,"o":"m 0 521 l 0 868 l 1736 868 l 1736 521 l 0 521 z "},"‘":{"ha":521,"x_min":0,"x_max":347,"o":"m 0 868 l 0 1389 l 347 1389 l 347 868 l 0 868 z "},"’":{"ha":521,"x_min":0,"x_max":347,"o":"m 0 868 l 0 1389 l 347 1389 l 347 868 l 0 868 z "},"‚":{"ha":521,"x_min":0,"x_max":347,"o":"m 0 -174 l 0 347 l 347 347 l 347 -174 l 0 -174 z "},"‛":{"ha":521,"x_min":0,"x_max":347,"o":"m 0 868 l 0 1389 l 347 1389 l 347 868 l 0 868 z "},"“":{"ha":1042,"x_min":0,"x_max":868,"o":"m 0 868 l 0 1389 l 347 1389 l 347 868 l 0 868 m 521 868 l 521 1389 l 868 1389 l 868 868 l 521 868 z "},"”":{"ha":1042,"x_min":0,"x_max":868,"o":"m 0 868 l 0 1389 l 347 1389 l 347 868 l 0 868 m 521 868 l 521 1389 l 868 1389 l 868 868 l 521 868 z "},"„":{"ha":1042,"x_min":0,"x_max":868,"o":"m 0 -174 l 0 347 l 347 347 l 347 -174 l 0 -174 m 521 -174 l 521 347 l 868 347 l 868 -174 l 521 -174 z "},"†":{"ha":1215,"x_min":0,"x_max":1042,"o":"m 347 0 l 347 694 l 0 694 l 0 1042 l 347 1042 l 347 1389 l 694 1389 l 694 1042 l 1042 1042 l 1042 694 l 694 694 l 694 0 l 347 0 z "},"•":{"ha":868,"x_min":0,"x_max":694,"o":"m 0 347 l 0 1042 l 694 1042 l 694 347 l 0 347 z "},"…":{"ha":1563,"x_min":0,"x_max":1389,"o":"m 0 0 l 0 347 l 347 347 l 347 0 l 0 0 m 521 0 l 521 347 l 868 347 l 868 0 l 521 0 m 1042 0 l 1042 347 l 1389 347 l 1389 0 l 1042 0 z "},"‹":{"ha":694,"x_min":0,"x_max":521,"o":"m 174 0 l 174 174 l 0 174 l 0 694 l 174 694 l 174 868 l 521 868 l 521 521 l 347 521 l 347 347 l 521 347 l 521 0 l 174 0 z "},"›":{"ha":694,"x_min":0,"x_max":521,"o":"m 0 0 l 0 347 l 174 347 l 174 521 l 0 521 l 0 868 l 347 868 l 347 694 l 521 694 l 521 174 l 347 174 l 347 0 l 0 0 z "},"€":{"ha":1389,"x_min":0,"x_max":1215,"o":"m 174 0 l 174 521 l 0 521 l 0 868 l 174 868 l 174 1389 l 1215 1389 l 1215 1042 l 521 1042 l 521 868 l 868 868 l 868 521 l 521 521 l 521 347 l 1215 347 l 1215 0 l 174 0 z "},"™":{"ha":1215,"x_min":0,"x_max":1042,"o":"m 694 347 l 694 1042 l 347 1042 l 347 347 l 694 347 m 0 0 l 0 1389 l 1042 1389 l 1042 0 l 0 0 z "},"ﬁ":{"ha":1215,"x_min":0,"x_max":1042,"o":"m 0 0 l 0 1389 l 1042 1389 l 1042 1042 l 347 1042 l 347 868 l 1042 868 l 1042 0 l 694 0 l 694 521 l 347 521 l 347 0 l 0 0 z "},"ﬂ":{"ha":1215,"x_min":0,"x_max":1042,"o":"m 0 0 l 0 1389 l 1042 1389 l 1042 0 l 694 0 l 694 1042 l 347 1042 l 347 868 l 521 868 l 521 521 l 347 521 l 347 0 l 0 0 z "}}}
